<svg data-name="Asset 51" xmlns="http://www.w3.org/2000/svg" width="124.377" height="117.146"><path data-name="Path 9640" d="M108.164 38.897c-3.861-9.025-1.027-24-8.865-29.9-7.593-5.727-21.021 1.063-31.094-.159S46.634-2.169 37.899 1.577c-8.974 3.861-9.813 19.083-15.7 26.936C16.487 36.156 2.024 41.022.803 51.154s11.671 18.338 15.41 27.1c3.861 9.032 1.027 24 8.865 29.9 7.593 5.727 21.021-1.063 31.13.159s21.534 11.013 30.27 7.231c9.01-3.861 9.813-19.083 15.7-26.936 5.713-7.614 20.175-12.51 21.4-22.641s-11.675-18.313-15.414-27.07z" fill="#e6e6e6"/><path data-name="Path 9641" d="M117.869 79.543a5.785 5.785 0 10-5.785-5.785 5.785 5.785 0 005.785 5.785z" fill="#fff"/><path data-name="Path 9642" d="M117.868 80.266a.723.723 0 01-.723-.723 5.061 5.061 0 00-5.062-5.062.723.723 0 010-1.446 5.062 5.062 0 005.062-5.062.723.723 0 011.446 0 5.062 5.062 0 005.062 5.062.723.723 0 010 1.446 5.061 5.061 0 00-5.062 5.062.723.723 0 01-.723.723zm-2.808-6.508a6.56 6.56 0 012.806 2.806 6.56 6.56 0 012.806-2.806 6.562 6.562 0 01-2.806-2.806 6.562 6.562 0 01-2.806 2.806z" fill="#a09cad"/><path data-name="Path 9643" d="M107.774 32.54a5.785 5.785 0 10-5.785-5.785 5.785 5.785 0 005.785 5.785z" fill="#fff"/><path data-name="Path 9644" d="M107.745 33.263a.723.723 0 01-.723-.723 5.062 5.062 0 00-5.062-5.062.723.723 0 010-1.446 5.062 5.062 0 005.062-5.062.723.723 0 011.446 0 5.062 5.062 0 005.062 5.062.723.723 0 010 1.446 5.062 5.062 0 00-5.062 5.062.723.723 0 01-.723.723zm-2.808-6.508a6.563 6.563 0 012.806 2.806 6.568 6.568 0 012.835-2.806 6.568 6.568 0 01-2.835-2.806 6.566 6.566 0 01-2.777 2.806z" fill="#a09cad"/><path data-name="Path 9645" d="M70.143 12.293a5.785 5.785 0 10-5.785-5.785 5.785 5.785 0 005.785 5.785z" fill="#fff"/><path data-name="Path 9646" d="M70.143 13.016a.723.723 0 01-.723-.723 5.062 5.062 0 00-5.062-5.062.723.723 0 110-1.446A5.062 5.062 0 0069.42.723a.723.723 0 011.446 0 5.062 5.062 0 005.062 5.062.723.723 0 010 1.446 5.062 5.062 0 00-5.062 5.062.723.723 0 01-.723.723zm-2.808-6.508a6.566 6.566 0 012.806 2.806 6.566 6.566 0 012.806-2.806A6.566 6.566 0 0170.143 3.7a6.566 6.566 0 01-2.808 2.808z" fill="#a09cad"/><path data-name="Path 9647" d="M26.032 26.756a5.785 5.785 0 10-5.785-5.785 5.785 5.785 0 005.785 5.785z" fill="#fff"/><path data-name="Path 9648" d="M26.032 27.478a.723.723 0 01-.723-.723 5.062 5.062 0 00-5.062-5.062.723.723 0 010-1.446 5.062 5.062 0 005.062-5.062.723.723 0 011.446 0 5.062 5.062 0 005.062 5.062.723.723 0 010 1.446 5.062 5.062 0 00-5.062 5.062.723.723 0 01-.723.723zm-2.808-6.508a6.566 6.566 0 012.806 2.806 6.566 6.566 0 012.806-2.806 6.566 6.566 0 01-2.804-2.808 6.566 6.566 0 01-2.808 2.808z" fill="#a09cad"/><path data-name="Path 9649" d="M6.508 91.113a5.785 5.785 0 10-5.785-5.785 5.785 5.785 0 005.785 5.785z" fill="#fff"/><path data-name="Path 9650" d="M6.508 91.836a.723.723 0 01-.723-.723 5.062 5.062 0 00-5.062-5.062.723.723 0 010-1.446 5.062 5.062 0 005.062-5.062.723.723 0 011.446 0 5.062 5.062 0 005.062 5.062.723.723 0 010 1.446 5.062 5.062 0 00-5.062 5.062.723.723 0 01-.723.723zM3.7 85.328a6.563 6.563 0 012.806 2.806 6.563 6.563 0 012.806-2.806 6.563 6.563 0 01-2.804-2.808A6.563 6.563 0 013.7 85.328z" fill="#a09cad"/><path data-name="Path 9651" d="M123.653 117.145H.723a.723.723 0 010-1.446h122.93a.723.723 0 010 1.446z" fill="#a09cad"/><path data-name="Path 9652" d="M101.96 32.54v83.882H22.417a7.231 7.231 0 01-7.231-7.231V32.54z" fill="#fff"/><path data-name="Path 9653" d="M15.185 65.081a.723.723 0 01-.723-.724V32.54a.723.723 0 01.723-.723h86.777a.723.723 0 01.723.723v16.632a.723.723 0 01-1.446 0V33.263H15.908v31.094a.723.723 0 01-.723.723z"/><path data-name="Path 9654" d="M101.96 82.436a.723.723 0 01-.723-.723v-28.2a.723.723 0 011.446 0v28.2a.723.723 0 01-.723.723z"/><path data-name="Path 9655" d="M101.962 117.145H22.416a7.955 7.955 0 01-7.954-7.954V68.696a.723.723 0 011.446 0v40.495a6.508 6.508 0 006.508 6.508h78.82v-10.847a.723.723 0 011.446 0v11.57a.723.723 0 01-.723.723z"/><path data-name="Path 9656" d="M28.672 112.807h79.545a7.23 7.23 0 01-6.255 3.616H22.417a7.23 7.23 0 006.255-3.616z" fill="#7fb9ff"/><path data-name="Path 9657" d="M93.283 39.772h-69.42a1.446 1.446 0 00-1.446 1.446v9.4a1.446 1.446 0 001.446 1.446h69.419a1.446 1.446 0 001.446-1.446v-9.4a1.446 1.446 0 00-1.445-1.446z" fill="#ededed"/><path data-name="Path 9658" d="M93.283 102.683h-69.42a1.446 1.446 0 00-1.446 1.446v5.062a1.446 1.446 0 001.446 1.446h69.419a1.446 1.446 0 001.446-1.446v-5.062a1.446 1.446 0 00-1.445-1.446z" fill="#ededed"/><path data-name="Path 9659" d="M41.217 58.573H23.863a1.446 1.446 0 00-1.446 1.446v34.71a1.446 1.446 0 001.446 1.446h17.354a1.446 1.446 0 001.446-1.446v-34.71a1.446 1.446 0 00-1.446-1.446z" fill="#ededed"/><path data-name="Path 9660" d="M93.282 58.573H50.618a1.446 1.446 0 00-1.446 1.446v34.71a1.446 1.446 0 001.446 1.446h42.664a1.446 1.446 0 001.446-1.446v-34.71a1.446 1.446 0 00-1.446-1.446z" fill="#ededed"/><path data-name="Path 9661" d="M29.648 109.191h79.543a7.233 7.233 0 01-.976 3.616H28.672a7.231 7.231 0 00.976-3.616z" fill="#afd3ff"/><path data-name="Path 9662" d="M101.96 117.145H22.417a.723.723 0 010-1.446 6.508 6.508 0 006.508-6.508.723.723 0 01.723-.723h20.246a.723.723 0 010 1.446H30.371a7.955 7.955 0 01-3.355 5.785h74.944a6.508 6.508 0 006.465-5.785H54.234a.723.723 0 010-1.446h54.96a.723.723 0 01.723.723 7.955 7.955 0 01-7.954 7.954z"/><path data-name="Path 9663" d="M57.452 28.202A20.45 20.45 0 0178.82 45.744a21.149 21.149 0 00.2-2.892 20.435 20.435 0 00-40.863-.673 20.894 20.894 0 00.2 3.616 20.587 20.587 0 0119.09-17.594z" fill="#afd3ff"/><path data-name="Path 9664" d="M47.863 65.855v.673a.723.723 0 00.723.723h19.972a.723.723 0 00.723-.723v-.9a11.064 11.064 0 013.406-8.019 20.4 20.4 0 006.132-11.866 20.435 20.435 0 00-40.459 0 20.334 20.334 0 005.951 11.695 11.765 11.765 0 013.551 8.417z" fill="#7fb9ff"/><path data-name="Path 9665" d="M68.559 67.974H48.587a1.446 1.446 0 01-1.447-1.448v-.673a11.165 11.165 0 00-3.435-7.954 21.188 21.188 0 1129.41.327 10.2 10.2 0 00-3.109 7.426v.874a1.446 1.446 0 01-1.446 1.446zM58.575 23.14h-1.28a19.777 19.777 0 00-18.434 19.525 19.481 19.481 0 005.864 14.2 12.619 12.619 0 013.861 9v.661h19.973v-.9a11.671 11.671 0 013.565-8.5A19.7 19.7 0 0058.575 23.14z"/><path data-name="Path 9666" d="M49.172 67.25h18.8v2.892a1.446 1.446 0 01-1.446 1.446H50.618a1.446 1.446 0 01-1.446-1.446z" fill="#b8b5c6"/><path data-name="Path 9667" d="M66.527 71.589H50.618a1.446 1.446 0 00-1.446 1.446v1.446a1.446 1.446 0 001.446 1.446h15.909a1.446 1.446 0 001.446-1.446v-1.446a1.446 1.446 0 00-1.446-1.446z" fill="#a09cad"/><path data-name="Path 9668" d="M60.019 80.267h-2.892a4.338 4.338 0 01-4.339-4.339h11.57a4.338 4.338 0 01-4.339 4.339z" fill="#a09cad"/><path data-name="Path 9669" d="M66.527 72.312H50.618a2.169 2.169 0 01-2.169-2.169V67.25a.723.723 0 01.723-.723h18.8a.723.723 0 01.723.723v2.892a2.169 2.169 0 01-2.169 2.169zm-16.632-4.339v2.169a.723.723 0 00.723.723h15.909a.723.723 0 00.723-.723v-2.169z"/><path data-name="Path 9670" d="M66.527 76.651H50.618a2.17 2.17 0 01-2.169-2.169v-1.446a2.169 2.169 0 012.169-2.17h15.909a2.169 2.169 0 012.169 2.169v1.446a2.17 2.17 0 01-2.169 2.169zm-15.909-4.339a.723.723 0 00-.723.723v1.446a.723.723 0 00.723.723h15.909a.723.723 0 00.723-.723v-1.446a.723.723 0 00-.723-.723z"/><path data-name="Path 9671" d="M60.019 80.989h-2.892a5.062 5.062 0 01-5.062-5.062.723.723 0 01.723-.723h11.57a.723.723 0 01.723.723 5.062 5.062 0 01-5.062 5.062zm-6.436-4.339a3.616 3.616 0 003.543 2.892h2.892a3.616 3.616 0 003.543-2.892z"/><path data-name="Path 9672" d="M106.299 86.051h-4.339v14.462h4.339a2.894 2.894 0 002.893-2.892v-8.677a2.894 2.894 0 00-2.893-2.893z" fill="#b8b5c6"/><path data-name="Path 9673" d="M106.299 90.39h-4.339v10.124h4.339a2.894 2.894 0 002.893-2.892v-4.339a2.894 2.894 0 00-2.893-2.893z" fill="#a09cad"/><path data-name="Path 9674" d="M106.299 101.237h-4.339a.723.723 0 01-.723-.723V86.051a.717.717 0 01.723-.723h4.339a3.614 3.614 0 013.616 3.616v8.677a3.614 3.614 0 01-3.616 3.616zm-3.616-1.446h3.616a2.17 2.17 0 002.169-2.169v-8.677a2.17 2.17 0 00-2.169-2.169h-3.616z"/><path data-name="Path 9675" d="M32.772 88.828l-8.909 4.454 8.909 4.454z" fill="#afd3ff"/><path data-name="Path 9676" d="M32.772 91.721l-8.909 1.56 8.909 4.454z" fill="#7fb9ff"/><path data-name="Path 9677" d="M38.311 93.282l2.234-2.892-2.219-4.339-5.554 2.777v8.909l5.554 2.777 2.22-4.339z" fill="#b8b5c6"/><path data-name="Path 9678" d="M38.311 93.282l2.235-2.892-7.774 1.331v6.016l5.554 2.777 2.22-4.339z" fill="#a09cad"/><path data-name="Path 9679" d="M38.325 101.237a.672.672 0 01-.325-.08l-14.462-7.231a.723.723 0 010-1.287L38 85.408a.723.723 0 01.834.063.723.723 0 01.261.516.72.72 0 01-.2.542.717.717 0 01-.244.167l-13.168 6.588 13.168 6.588a.722.722 0 01-.325 1.367z"/><path data-name="Path 9680" d="M101.96 100.513V86.051H38.325l2.22 4.339-2.234 2.892 2.234 2.892-2.22 4.339z" fill="#ff3da2"/><path data-name="Path 9681" d="M101.96 86.051H38.325l2.22 4.339h61.415z" fill="#ff91bb"/><path data-name="Path 9682" d="M101.959 91.113H81.712a.723.723 0 010-1.446h20.247a.723.723 0 010 1.446z" fill="#fff"/><path data-name="Path 9683" d="M77.374 91.113H40.545a.723.723 0 010-1.446h36.829a.723.723 0 010 1.446z" fill="#fff"/><path data-name="Path 9684" d="M101.96 96.898H40.545a.723.723 0 010-1.446h61.415a.723.723 0 010 1.446z" fill="#fff"/><path data-name="Path 9685" d="M101.96 101.237H38.326a.712.712 0 01-.615-1.07l2.01-3.927-1.96-2.531a.723.723 0 010-.882l1.96-2.531-2.01-3.927a.723.723 0 01.615-1.041h63.635a.723.723 0 01.723.723v14.462a.723.723 0 01-.723.723zm-62.449-1.446h61.725V86.774H39.511l1.707 3.283a.723.723 0 01-.072.774l-1.923 2.451 1.895 2.451a.723.723 0 01.072.774z"/><path data-name="Path 9686" d="M32.772 98.465a.723.723 0 01-.723-.723v-8.909a.723.723 0 011.446 0v8.909a.723.723 0 01-.723.723z"/><path data-name="Path 9687" d="M67.974 40.816l-6.751 1.269a.318.318 0 01-.376-.347l1.8-14.26a.318.318 0 00-.586-.21l-13.228 21.26a.311.311 0 00.325.477l6.754-1.28a.318.318 0 01.376.354l-1.873 14.109a.318.318 0 00.586.21l13.313-21.116a.318.318 0 00-.34-.463z" fill="#fff"/></svg>