<svg data-name="Asset 41" xmlns="http://www.w3.org/2000/svg" width="125" height="117.733"><path data-name="Path 9587" d="M120.368 44.032c-2.327-9.686-16.72-12.716-23.045-19.467-6.532-6.931-6.467-18.85-16.8-23.012-8.511-3.429-19.9 6.924-29.448 9.28s-21.64-1.711-28.729 5.438c-6.694 6.764-3.44 19.162-6.1 28.37C13.703 53.559 2.312 63.014 4.631 72.7S21.352 85.453 27.68 92.165c6.529 6.931 9.035 21.591 18.092 24.3 8.784 2.617 18.6-8.207 28.133-10.564s23.142 2.661 29.749-3.77c6.823-6.641 2.406-20.83 5.028-30.03 2.615-8.928 14.006-18.382 11.686-28.069z" fill="#e6e6e6"/><path data-name="Path 9588" d="M124.273 117.732H.727a.672.672 0 01-.514-.253.984.984 0 010-1.223.672.672 0 01.514-.253h123.546a.672.672 0 01.514.253.984.984 0 010 1.223.672.672 0 01-.514.253z" fill="#a09cad"/><path data-name="Path 9589" d="M99.927 16.576H25.073v100.292h74.854z" fill="#fff"/><path data-name="Path 9590" d="M69.811 16.576L39.334 116.868h28.289L98.1 16.576z" fill="#ededed"/><path data-name="Path 9591" d="M25.805 116.868h7.729L64.011 16.576h-8.317z" fill="#ededed"/><path data-name="Path 9592" d="M100.132 117.732H24.869a.592.592 0 01-.467-.253 1.015 1.015 0 01-.193-.611v-73.49a1.016 1.016 0 01.193-.611.557.557 0 01.934 0 1.016 1.016 0 01.193.611v72.625h73.942V90.93a1.013 1.013 0 01.193-.611.557.557 0 01.934 0 1.013 1.013 0 01.193.611v25.938a1.013 1.013 0 01-.193.611.592.592 0 01-.466.253z"/><path data-name="Path 9593" d="M100.132 96.66a.592.592 0 01-.467-.253 1.013 1.013 0 01-.193-.611v-68.3H25.529v20.75a1.016 1.016 0 01-.193.611.557.557 0 01-.934 0 1.016 1.016 0 01-.193-.618V26.625a1.016 1.016 0 01.193-.611.593.593 0 01.467-.254h75.263a.593.593 0 01.467.253 1.014 1.014 0 01.193.611v69.167a1.013 1.013 0 01-.193.611.592.592 0 01-.467.258z"/><path data-name="Path 9594" d="M99.927 22.125H25.073v12.1h74.854z" fill="#ff3da2"/><path data-name="Path 9595" d="M98.818 22.125H70.524l-3.67 12.1h28.289z" fill="#ff91bb"/><path data-name="Path 9596" d="M55.476 22.125l-3.614 12.1h8.317l3.684-12.1z" fill="#ff91bb"/><path data-name="Path 9597" d="M100.132 35.182H24.869a.593.593 0 01-.467-.253 1.016 1.016 0 01-.193-.611v-12.1a1.016 1.016 0 01.193-.611.593.593 0 01.467-.258h22.447a.593.593 0 01.467.253 1.063 1.063 0 010 1.223.593.593 0 01-.467.253H25.529v10.371h73.942V23.078H51.277a.593.593 0 01-.467-.253 1.063 1.063 0 010-1.223.593.593 0 01.467-.253h48.855a.593.593 0 01.467.253 1.014 1.014 0 01.193.611v12.1a1.014 1.014 0 01-.193.611.593.593 0 01-.467.258z"/><path data-name="Path 9598" d="M26.327 29.495a1.729 1.729 0 10-1.729-1.729 1.729 1.729 0 001.729 1.729z" fill="#fff"/><path data-name="Path 9599" d="M32.114 29.495a1.729 1.729 0 10-1.729-1.729 1.729 1.729 0 001.729 1.729z" fill="#fff"/><path data-name="Path 9600" d="M37.902 29.495a1.729 1.729 0 10-1.729-1.729 1.729 1.729 0 001.729 1.729z" fill="#fff"/><path data-name="Path 9601" d="M64.229 76.854h-3.458v19.021h3.458z" fill="#ff3da2"/><path data-name="Path 9602" d="M93.875 95.577h-2.51v-7.781h-57.73v7.781h-2.51v-9.51a2.1 2.1 0 01.368-1.223 1.114 1.114 0 01.887-.507h60.24a1.114 1.114 0 01.887.507 2.105 2.105 0 01.368 1.223z" fill="#ff3da2"/><path data-name="Path 9603" d="M51.057 90.93a1.73 1.73 0 00-1.729 1.729v13.833a1.73 1.73 0 001.729 1.729h4.781l5.257-17.291z" fill="#b8b5c6"/><path data-name="Path 9604" d="M73.869 90.93h-3.8l-5.252 17.292h9.052a1.73 1.73 0 001.729-1.729V92.659a1.73 1.73 0 00-1.729-1.729z" fill="#b8b5c6"/><path data-name="Path 9605" d="M59.48 90.93l-5.257 17.292h12.1l5.261-17.292z" fill="#a09cad"/><path data-name="Path 9606" d="M79.388 62.952h-.536l-5.257 17.292h5.793a1.73 1.73 0 001.729-1.729V64.681a1.73 1.73 0 00-1.729-1.729z" fill="#b8b5c6"/><path data-name="Path 9607" d="M52.688 62.952l-5.257 17.292h6.052l5.257-17.292z" fill="#a09cad"/><path data-name="Path 9608" d="M45.465 62.952a1.729 1.729 0 00-1.729 1.729v13.833a1.73 1.73 0 001.729 1.729h2.853l5.257-17.291z" fill="#b8b5c6"/><path data-name="Path 9609" d="M67.82 62.952l-5.257 17.292h12.1l5.261-17.292z" fill="#a09cad"/><path data-name="Path 9610" d="M57.116 62.952l-5.257 17.292h12.969l5.257-17.292z" fill="#b8b5c6"/><path data-name="Path 9611" d="M82.386 81.068H42.615a2.594 2.594 0 01-2.594-2.594V64.641a2.594 2.594 0 012.594-2.594h39.771a2.594 2.594 0 012.594 2.594v13.833a2.595 2.595 0 01-2.594 2.594zM42.615 63.776a.865.865 0 00-.865.865v13.833a.865.865 0 00.865.865h39.771a.865.865 0 00.865-.865V64.641a.865.865 0 00-.865-.865z"/><path data-name="Path 9612" d="M75.468 109.087H49.531a2.594 2.594 0 01-2.594-2.594V92.66a2.594 2.594 0 012.594-2.594h25.937a2.595 2.595 0 012.594 2.594v13.833a2.595 2.595 0 01-2.594 2.594zM49.531 91.795a.865.865 0 00-.865.865v13.833a.865.865 0 00.865.865h25.937a.865.865 0 00.865-.865V92.66a.865.865 0 00-.865-.865z"/><path data-name="Path 9613" d="M39.287 90.93h-2.066l-5.257 17.292h7.323a1.73 1.73 0 001.729-1.729V92.659a1.73 1.73 0 00-1.729-1.729z" fill="#b8b5c6"/><path data-name="Path 9614" d="M19.885 90.93a1.73 1.73 0 00-1.729 1.729v13.833a1.73 1.73 0 001.729 1.729h9.971l5.255-17.291z" fill="#b8b5c6"/><path data-name="Path 9615" d="M29.861 90.93l-5.257 17.292h8.646l5.257-17.292z" fill="#a09cad"/><path data-name="Path 9616" d="M45.823 109.087H19.886a2.594 2.594 0 01-2.594-2.594V92.66a2.594 2.594 0 012.594-2.594h25.937a2.594 2.594 0 012.594 2.594v13.833a2.594 2.594 0 01-2.594 2.594zM19.886 91.795a.865.865 0 00-.865.865v13.833a.865.865 0 00.865.865h25.937a.865.865 0 00.865-.865V92.66a.865.865 0 00-.865-.865z"/><path data-name="Path 9617" d="M84.683 90.93a1.73 1.73 0 00-1.729 1.729v13.833a1.73 1.73 0 001.729 1.729h9.971l5.255-17.291z" fill="#b8b5c6"/><path data-name="Path 9618" d="M105.115 90.93H94.402l-5.257 17.292h15.97a1.73 1.73 0 001.729-1.729V92.659a1.73 1.73 0 00-1.729-1.729z" fill="#a09cad"/><path data-name="Path 9619" d="M105.114 109.087H79.177a2.595 2.595 0 01-2.594-2.594V92.66a2.595 2.595 0 012.594-2.594h25.938a2.595 2.595 0 012.594 2.594v13.833a2.595 2.595 0 01-2.594 2.594zM79.176 91.795a.865.865 0 00-.865.865v13.833a.865.865 0 00.865.865h25.938a.865.865 0 00.865-.865V92.66a.865.865 0 00-.865-.865z"/><path data-name="Path 9620" d="M77.691 31.475a21.486 21.486 0 10-30.382 30.39L62.5 77.056l15.191-15.191a21.486 21.486 0 000-30.39z" fill="#7fb9ff"/><path data-name="Path 9621" d="M49.996 35.638a21.5 21.5 0 0130.39 0c.138.138.268.285.4.424a21.127 21.127 0 00-2.706-3.3 21.476 21.476 0 00-30.382 0 21.485 21.485 0 00-.372 29.967 21.511 21.511 0 012.672-27.088z" fill="#afd3ff"/><path data-name="Path 9622" d="M62.501 77.969a.864.864 0 01-.614-.251l-15.191-15.2a22.351 22.351 0 0131.605-31.604 22.359 22.359 0 010 31.609l-15.191 15.2a.864.864 0 01-.614.251zm0-51.875a20.629 20.629 0 00-14.586 35.21L62.501 75.89l14.585-14.586a20.629 20.629 0 000-29.163 20.491 20.491 0 00-14.585-6.043z"/><path data-name="Path 9623" d="M68.707 38.058a10.678 10.678 0 01-14.949 14.923 10.678 10.678 0 1014.949-14.923z" fill="#ededed"/><path data-name="Path 9624" d="M71.241 44.832a10.652 10.652 0 00-2.144-6.381 10.678 10.678 0 00-14.949 14.923 10.669 10.669 0 0017.093-8.542z" fill="#fff"/><path data-name="Path 9625" d="M62.5 58.43a11.577 11.577 0 118.169-3.391A11.56 11.56 0 0162.5 58.43zm0-21.381a9.839 9.839 0 106.945 2.881 9.83 9.83 0 00-6.946-2.879z"/><path data-name="Path 9626" d="M42.465 6.052H33.82a.865.865 0 110-1.729h8.645a.865.865 0 010 1.729z" fill="#a09cad"/><path data-name="Path 9627" d="M37.846 10.375a.865.865 0 01-.865-.865V.865a.865.865 0 011.729 0V9.51a.865.865 0 01-.865.865z" fill="#a09cad"/><path data-name="Path 9628" d="M104.792 13.833h-8.646a.865.865 0 010-1.729h8.646a.865.865 0 010 1.729z" fill="#a09cad"/><path data-name="Path 9629" d="M96.469 18.156a.865.865 0 01-.865-.865V8.646a.865.865 0 011.729 0v8.645a.865.865 0 01-.865.865z" fill="#a09cad"/><path data-name="Path 9630" d="M17.291 88.007h-6.916a.865.865 0 010-1.729h6.917a.865.865 0 010 1.729z" fill="#a09cad"/><path data-name="Path 9631" d="M13.834 91.179a.865.865 0 01-.865-.865v-6.917a.865.865 0 011.729 0v6.917a.865.865 0 01-.865.865z" fill="#a09cad"/><path data-name="Path 9632" d="M70.986 18.156H64.07a.865.865 0 010-1.729h6.917a.865.865 0 010 1.729z" fill="#a09cad"/><path data-name="Path 9633" d="M67.576 21.615a.865.865 0 01-.865-.865v-6.916a.865.865 0 011.729 0v6.917a.865.865 0 01-.865.865z" fill="#a09cad"/><path data-name="Path 9634" d="M9.51 48.13H.865a.865.865 0 010-1.729H9.51a.865.865 0 010 1.729z" fill="#a09cad"/><path data-name="Path 9635" d="M5.188 52.602a.865.865 0 01-.865-.865v-8.645a.865.865 0 111.729 0v8.645a.865.865 0 01-.865.865z" fill="#a09cad"/><path data-name="Path 9636" d="M124.135 35.08h-6.917a.865.865 0 010-1.729h6.917a.865.865 0 010 1.729z" fill="#a09cad"/><path data-name="Path 9637" d="M120.677 38.788a.865.865 0 01-.865-.865v-6.916a.865.865 0 011.729 0v6.917a.865.865 0 01-.865.865z" fill="#a09cad"/><path data-name="Path 9638" d="M114.625 76.406h-6.917a.865.865 0 010-1.729h6.917a.865.865 0 010 1.729z" fill="#a09cad"/><path data-name="Path 9639" d="M111.167 79.696a.865.865 0 01-.865-.865v-6.916a.865.865 0 011.729 0v6.917a.865.865 0 01-.865.865z" fill="#a09cad"/></svg>