<svg xmlns="http://www.w3.org/2000/svg" width="125.334" height="117.874"><g data-name="Layer 2-2"><path data-name="Path 9783" d="M106.863 35.318c-4.618-8.682-3.067-23.87-11.385-29.092-8.071-5.1-20.89 2.855-31.088 2.5S41.955-.424 33.55 4.063c-8.661 4.62-8.173 19.848-13.381 28.22C15.114 40.366 1.093 46.492.731 56.689s13.2 17.307 17.683 25.727c4.618 8.682 3.067 23.87 11.385 29.092 8.071 5.062 20.89-2.855 31.088-2.5s22.434 9.15 30.844 4.663c8.661-4.625 8.173-19.878 13.381-28.225 5.062-8.063 19.084-14.189 19.448-24.387s-13.218-17.321-17.697-25.741z" fill="#e6e6e6"/><path data-name="Path 9784" d="M3.467 80.588a2.863 2.863 0 014.414-3.5 5.157 5.157 0 0110.278.67 5.09 5.09 0 01-.095.947 4.571 4.571 0 01.9-.095 4.37 4.37 0 01-.022 8.675H4.108a3.38 3.38 0 01-.641-6.694z" fill="#fff"/><path data-name="Path 9785" d="M18.938 88.01H4.108a4.108 4.108 0 01-1.617-7.878 3.749 3.749 0 01-.124-.947 3.6 3.6 0 015.03-3.296 5.893 5.893 0 0111.49 1.843v.124a5.1 5.1 0 11.051 10.154zM5.958 77.084a2.134 2.134 0 00-1.861 3.183.748.748 0 01-.524 1.071 2.651 2.651 0 00.532 5.215h14.83a3.642 3.642 0 10-.728-7.16.726.726 0 01-.663-.189.728.728 0 01-.2-.656 4.608 4.608 0 00.08-.816 4.436 4.436 0 00-8.828-.575.723.723 0 01-1.2.444 2.135 2.135 0 00-1.435-.517z" fill="#a09cad"/><path data-name="Path 9786" d="M88.687 18.448a2.972 2.972 0 014.582-3.642 5.354 5.354 0 0110.656.692 5.432 5.432 0 01-.095.983 4.8 4.8 0 01.925-.095 4.509 4.509 0 010 9.018h-15.4a3.5 3.5 0 01-.67-6.942z" fill="#fff"/><path data-name="Path 9787" d="M104.751 26.096h-15.4a4.232 4.232 0 01-1.646-8.129 3.883 3.883 0 01-.138-1 3.708 3.708 0 013.7-3.7 3.641 3.641 0 011.515.328 6.082 6.082 0 0111.866 1.865 1.18 1.18 0 010 .16 5.237 5.237 0 01.1 10.474zM91.268 14.748a2.236 2.236 0 00-1.952 3.336.728.728 0 01-.5 1.071 2.775 2.775 0 00.532 5.5h15.4a3.78 3.78 0 10-.772-7.481.733.733 0 01-.851-.491.722.722 0 01-.023-.354 4.4 4.4 0 00.087-.852 4.625 4.625 0 00-9.229-.59.723.723 0 01-1.2.444 2.236 2.236 0 00-1.492-.583z" fill="#a09cad"/><path data-name="Path 9788" d="M121.817 55.502a2.863 2.863 0 00-4.421-3.525 5.157 5.157 0 00-10.278.67 5.817 5.817 0 00.087.947 3.954 3.954 0 00-.889-.095 4.37 4.37 0 100 8.7h14.859a3.38 3.38 0 00.641-6.694z" fill="#fff"/><path data-name="Path 9789" d="M121.176 62.924h-14.83a5.1 5.1 0 110-10.154h.077v-.124a5.893 5.893 0 0111.487-1.843 3.644 3.644 0 011.457-.306 3.6 3.6 0 013.591 3.6 3.442 3.442 0 01-.131.947 4.1 4.1 0 01-1.61 7.881zm-14.83-8.7a3.642 3.642 0 100 7.24h14.859a2.651 2.651 0 00.5-5.252.728.728 0 01-.5-1.071 2.141 2.141 0 00-1.857-3.19 2.1 2.1 0 00-1.457.561.728.728 0 01-1.216-.444 4.429 4.429 0 00-8.828.575 4.09 4.09 0 00.08.816.728.728 0 01-.86.845 3.316 3.316 0 00-.728-.08z" fill="#a09cad"/><path data-name="Path 9790" d="M47.535 7.595a2.5 2.5 0 013.853-3.074 4.5 4.5 0 018.882 1.413 3.409 3.409 0 01.779-.087 3.795 3.795 0 010 7.583H48.07a2.927 2.927 0 11-.561-5.827z" fill="#fff"/><path data-name="Path 9791" d="M61.05 14.158H48.074a3.642 3.642 0 01-1.457-7 3.127 3.127 0 01-.095-.779 3.227 3.227 0 014.428-2.987 5.23 5.23 0 0110.126 1.712 4.523 4.523 0 010 9.039zM49.713 4.601a1.77 1.77 0 00-1.77 1.763 1.836 1.836 0 00.226.874.728.728 0 01-.5 1.071 2.2 2.2 0 10.422 4.37H61.05a3.059 3.059 0 10-.59-6.038.755.755 0 01-.932-.867 3.89 3.89 0 00.066-.728 3.773 3.773 0 00-7.51-.488.728.728 0 01-1.209.444 1.755 1.755 0 00-1.158-.4z" fill="#a09cad"/><path data-name="Path 9792" d="M20.242 13.103a1.981 1.981 0 00-1.719-2.95 1.959 1.959 0 00-1.326.517 3.562 3.562 0 00-7.095.459 3.227 3.227 0 00.066.656 2.915 2.915 0 00-.619-.066 3 3 0 100 6h10.249a2.331 2.331 0 00.444-4.618z" fill="#fff"/><path data-name="Path 9793" d="M19.798 18.448H9.549a3.729 3.729 0 01-.168-7.451 4.29 4.29 0 018.282-1.457 2.6 2.6 0 01.86-.146 2.71 2.71 0 012.7 2.71 2.556 2.556 0 01-.051.524 3.059 3.059 0 01-1.377 5.827zm-10.249-6a2.273 2.273 0 100 4.545h10.249a1.6 1.6 0 00.306-3.176.749.749 0 01-.524-1.071 1.217 1.217 0 00.16-.612 1.246 1.246 0 00-2.083-.925.728.728 0 01-1.18-.408 2.833 2.833 0 00-5.645.364 3.351 3.351 0 00.051.524.725.725 0 01-.867.845 2.034 2.034 0 00-.466-.087z" fill="#a09cad"/><path data-name="Path 9794" d="M92.506 32.648h-77.21v84.5h77.21z" fill="#fff"/><path data-name="Path 9795" d="M15.296 64.701a.728.728 0 01-.728-.729V32.651a.728.728 0 01.728-.732h77.21a.729.729 0 01.728.728v18.622a.729.729 0 01-1.457 0V33.38H16.025v30.592a.728.728 0 01-.728.728z"/><path data-name="Path 9796" d="M61.935 32.648l-25.676 84.5h23.833l25.676-84.5z" fill="#ededed"/><path data-name="Path 9797" d="M18.938 117.148h6.512l25.676-84.5h-7.007z" fill="#ededed"/><path data-name="Path 9798" d="M124.556 117.874H.728a.729.729 0 010-1.457h123.828a.729.729 0 010 1.457z" fill="#a09cad"/><path data-name="Path 9799" d="M45.161 117.874H15.296a.729.729 0 01-.728-.728v-48.8a.729.729 0 011.457 0v48.074h29.136a.729.729 0 010 1.457z"/><path data-name="Path 9800" d="M92.502 117.874H49.53a.729.729 0 010-1.457h42.247v-3.321a.729.729 0 011.457 0v4.05a.729.729 0 01-.728.728z"/><path data-name="Path 9801" d="M92.506 22.45h-77.21v10.2h77.21z" fill="#ff3da2"/><path data-name="Path 9802" d="M88.864 22.45H65.031l-3.1 10.2h23.833z" fill="#ff91bb"/><path data-name="Path 9803" d="M47.164 22.45l-3.045 10.2h7.007l3.103-10.2z" fill="#ff91bb"/><path data-name="Path 9804" d="M92.506 33.38h-77.21a.728.728 0 01-.728-.728v-10.2a.728.728 0 01.728-.73h77.21a.729.729 0 01.728.728v10.2a.729.729 0 01-.728.728zm-76.481-1.458h75.753v-8.739H16.025z"/><path data-name="Path 9805" d="M21.124 29.01a1.457 1.457 0 10-1.457-1.457 1.457 1.457 0 001.457 1.457z" fill="#fff"/><path data-name="Path 9806" d="M26.951 29.01a1.457 1.457 0 10-1.457-1.457 1.457 1.457 0 001.457 1.457z" fill="#fff"/><path data-name="Path 9807" d="M32.778 29.01a1.457 1.457 0 10-1.457-1.457 1.457 1.457 0 001.457 1.457z" fill="#fff"/><path data-name="Path 9808" d="M104.161 78.081l5.827-3.351-2.841-6.854-6.49 1.748a22.166 22.166 0 00-5.791-5.827l1.748-6.475-6.853-2.823-3.351 5.827a22.138 22.138 0 00-8.194 0l-3.358-5.827-6.854 2.841 1.748 6.49a22.165 22.165 0 00-5.827 5.827l-6.475-1.748-2.82 6.822 5.827 3.351a22.019 22.019 0 000 8.2l-5.827 3.352 2.841 6.854 6.49-1.748a22.167 22.167 0 005.827 5.827l-1.748 6.475 6.854 2.841 3.351-5.827a22.18 22.18 0 008.2 0l3.351 5.827 6.854-2.841-1.748-6.49a22.162 22.162 0 005.827-5.791l6.475 1.748 2.841-6.854-5.827-3.351a22.019 22.019 0 00-.058-8.224z" fill="#7fb9ff"/><path data-name="Path 9809" d="M89.76 110.59a.725.725 0 01-.626-.364l-3.1-5.383a22.641 22.641 0 01-7.451 0l-3.091 5.375a.729.729 0 01-.91.306l-6.84-2.848a.728.728 0 01-.422-.867l1.61-5.987a22.731 22.731 0 01-5.259-5.274l-5.997 1.613a.729.729 0 01-.86-.415l-2.833-6.854a.729.729 0 01.306-.91l5.383-3.1a22.844 22.844 0 010-7.451l-5.378-3.081a.728.728 0 01-.306-.91l2.826-6.825a.728.728 0 01.867-.422l5.987 1.61a22.734 22.734 0 015.274-5.259l-1.639-6.017a.728.728 0 01.437-.838l6.854-2.834a.729.729 0 01.9.306l3.1 5.383a22.844 22.844 0 017.451 0l3.088-5.376a.728.728 0 01.91-.306l6.825 2.826a.729.729 0 01.422.867l-1.61 5.987a22.734 22.734 0 015.259 5.274l5.995-1.617a.729.729 0 01.859.415l2.833 6.854a.729.729 0 01-.306.91l-5.383 3.1a22.839 22.839 0 010 7.451l5.376 3.088a.729.729 0 01.306.91l-2.826 6.825a.728.728 0 01-.867.422l-5.987-1.61a22.731 22.731 0 01-5.274 5.259l1.617 5.995a.729.729 0 01-.415.859l-6.854 2.833a.606.606 0 01-.251.08zm-3.351-7.284a.73.73 0 01.626.364l3.037 5.274 5.667-2.345-1.581-5.878a.729.729 0 01.291-.787 21.381 21.381 0 005.616-5.6.728.728 0 01.794-.3l5.864 1.581 2.345-5.667-5.259-3.03a.728.728 0 01-.357-.728 21.358 21.358 0 000-7.932.729.729 0 01.35-.728l5.274-3.037-2.345-5.667-5.878 1.581a.729.729 0 01-.787-.291 21.384 21.384 0 00-5.6-5.616.729.729 0 01-.3-.794l1.581-5.827-5.667-2.345-3.03 5.259a.728.728 0 01-.728.357 21.357 21.357 0 00-7.932 0 .728.728 0 01-.728-.35l-3.037-5.274-5.667 2.345 1.581 5.878a.728.728 0 01-.291.787 21.393 21.393 0 00-5.616 5.6.728.728 0 01-.794.3l-5.827-1.581-2.345 5.667 5.259 3.03a.729.729 0 01.357.728 21.358 21.358 0 000 7.932.728.728 0 01-.35.728l-5.274 3.037 2.345 5.667 5.878-1.581a.729.729 0 01.787.291 21.39 21.39 0 005.6 5.616.728.728 0 01.3.794l-1.581 5.864 5.667 2.345 3.03-5.259a.729.729 0 01.728-.357 21.2 21.2 0 007.932 0z"/><path data-name="Path 9810" d="M82.309 93.109a10.926 10.926 0 10-10.926-10.926 10.926 10.926 0 0010.926 10.926z" fill="#fff"/><path data-name="Path 9811" d="M82.308 93.837a11.654 11.654 0 118.246-3.413 11.655 11.655 0 01-8.246 3.413zm0-21.852a10.2 10.2 0 107.211 2.987 10.195 10.195 0 00-7.211-2.987z"/><path data-name="Path 9812" d="M65.92 84.004a1.821 1.821 0 01-1.821-1.821 18.21 18.21 0 0118.21-18.214 1.821 1.821 0 110 3.642 14.568 14.568 0 00-14.568 14.568A1.821 1.821 0 0165.92 84z" fill="#afd3ff"/><path data-name="Path 9813" d="M82.309 100.393a1.821 1.821 0 110-3.642 14.568 14.568 0 0014.568-14.568 1.821 1.821 0 113.642 0 18.209 18.209 0 01-18.21 18.21z" fill="#afd3ff"/><path data-name="Path 9814" d="M54.892 53.724l4.837-2.972a15.975 15.975 0 00-.823-2.549 17.426 17.426 0 00-1.216-2.382l-5.521 1.318a10.53 10.53 0 00-1.107-1.1l1.326-5.514a16.412 16.412 0 00-4.94-2.05l-2.969 4.841a11.133 11.133 0 00-1.559 0l-2.96-4.841a16.4 16.4 0 00-4.939 2.04l1.326 5.514a10.592 10.592 0 00-1.107 1.107l-5.514-1.326a16.45 16.45 0 00-2.047 4.943l4.837 2.972a11.132 11.132 0 000 1.559l-4.837 2.971a16.967 16.967 0 00.816 2.549 17.479 17.479 0 001.224 2.382l5.521-1.326a10.583 10.583 0 001.107 1.107l-1.326 5.514a16.4 16.4 0 004.939 2.047l2.965-4.837a11.132 11.132 0 001.559 0l2.965 4.837a17.355 17.355 0 002.557-.816 16.7 16.7 0 002.382-1.231l-1.318-5.514a11.174 11.174 0 001.093-1.107l5.516 1.315a16.367 16.367 0 002.047-4.931l-4.837-2.965a11.134 11.134 0 00.003-1.555z" fill="#a09cad"/><path data-name="Path 9815" d="M47.447 71.254a.728.728 0 01-.619-.35l-2.739-4.465h-.772l-2.739 4.465a.728.728 0 01-.787.328 16.972 16.972 0 01-5.157-2.163.728.728 0 01-.32-.728l1.224-5.1a8.463 8.463 0 01-.546-.539l-5.1 1.216a.728.728 0 01-.758-.35 17.122 17.122 0 01-1.311-2.513 16.222 16.222 0 01-.874-2.644.728.728 0 01.328-.787l4.465-2.739v-.772l-4.464-2.734a.728.728 0 01-.328-.794 17.11 17.11 0 012.185-5.15.728.728 0 01.787-.32l5.1 1.224q.262-.284.546-.546l-1.224-5.1a.728.728 0 01.291-.758 16.9 16.9 0 015.157-2.181.728.728 0 01.787.328l2.739 4.465h.772l2.739-4.465a.728.728 0 01.786-.328 17.423 17.423 0 015.15 2.185.728.728 0 01.328.728l-1.224 5.1c.189.175.371.357.554.546l5.1-1.216a.728.728 0 01.787.32 17.4 17.4 0 012.148 5.176.728.728 0 01-.328.787l-4.465 2.739v.772l4.465 2.739a.728.728 0 01.328.787 17.087 17.087 0 01-2.185 5.15.728.728 0 01-.787.328l-5.1-1.224c-.182.2-.357.379-.539.546l1.216 5.1a.728.728 0 01-.3.758 17.483 17.483 0 01-2.505 1.308 17.013 17.013 0 01-2.644.874.62.62 0 01-.167-.003zm-2.964-6.29a.728.728 0 01.619.35l2.688 4.37a15.809 15.809 0 001.93-.656 14.664 14.664 0 001.828-.9l-1.195-5a.728.728 0 01.233-.728 10.5 10.5 0 001.027-1.027.728.728 0 01.728-.233l5 1.195a15.877 15.877 0 001.559-3.759l-4.37-2.688a.728.728 0 01-.342-.67 10.8 10.8 0 000-1.457.728.728 0 01.342-.67l4.37-2.688a15.867 15.867 0 00-.656-1.93 15.236 15.236 0 00-.9-1.828l-5 1.195a.728.728 0 01-.728-.233 9.723 9.723 0 00-1.034-1.02.728.728 0 01-.233-.728l1.195-5a15.582 15.582 0 00-3.759-1.559l-2.688 4.37a.728.728 0 01-.677.342 9.63 9.63 0 00-1.457 0 .728.728 0 01-.67-.35l-2.688-4.37a16.264 16.264 0 00-1.93.656 15.782 15.782 0 00-1.828.9l1.195 5a.728.728 0 01-.233.728 9.779 9.779 0 00-1.027 1.027.728.728 0 01-.728.233l-5-1.2a15.8 15.8 0 00-1.559 3.766l4.37 2.688a.728.728 0 01.35.663 10.926 10.926 0 000 1.457.728.728 0 01-.342.67l-4.37 2.7a15.336 15.336 0 00.656 1.923 14.211 14.211 0 00.9 1.828l5-1.195a.728.728 0 01.728.233 9.2 9.2 0 001.034 1.027.729.729 0 01.226.728l-1.195 5a15.3 15.3 0 003.759 1.551l2.688-4.37a.728.728 0 01.67-.342 9.707 9.707 0 001.457 0z"/><path data-name="Path 9816" d="M45.233 58.204a4.006 4.006 0 111.3-.864 4.006 4.006 0 01-1.3.864z" fill="#fff"/><path data-name="Path 9817" d="M43.704 59.238a4.742 4.742 0 111.814-.364 4.663 4.663 0 01-1.814.364zm0-8.012a3.271 3.271 0 101.253.248 3.27 3.27 0 00-1.253-.248z"/><path data-name="Path 9818" d="M47.557 88.294l4.414-2.141a14.572 14.572 0 00-1.339-4.405l-4.851.656a8.985 8.985 0 00-.86-1.034l1.61-4.633a14.323 14.323 0 00-4.064-2.185l-2.965 3.9a8.272 8.272 0 00-1.34-.131l-2.134-4.37a13.754 13.754 0 00-4.414 1.333l.663 4.851a9.078 9.078 0 00-1.042.86l-4.625-1.61a14.243 14.243 0 00-2.185 4.064l3.9 2.965a9.078 9.078 0 00-.131 1.34l-4.414 2.141a14.724 14.724 0 00.488 2.258 14.25 14.25 0 00.852 2.185l4.851-.67a9.192 9.192 0 00.86 1.042l-1.61 4.633a14.052 14.052 0 004.072 2.185l2.957-3.9a10.216 10.216 0 001.34.138l2.134 4.37a14.669 14.669 0 002.265-.488 13.9 13.9 0 002.185-.852l-.663-4.851a9.814 9.814 0 001.042-.86l4.625 1.61a14.234 14.234 0 002.185-4.064l-3.9-2.965a9.092 9.092 0 00.094-1.372z" fill="#ff3da2"/><path data-name="Path 9819" d="M39.727 102.833a.728.728 0 01-.656-.415l-1.923-4.021a1.816 1.816 0 01-.554-.058l-2.7 3.562a.727.727 0 01-.809.248 14.809 14.809 0 01-4.283-2.287.729.729 0 01-.24-.816l1.457-4.225c-.124-.138-.24-.284-.357-.422l-4.429.6a.727.727 0 01-.728-.4 15.109 15.109 0 01-.9-2.265 15.5 15.5 0 01-.51-2.375.729.729 0 01.408-.728l3.984-1.952a1.816 1.816 0 01.058-.554l-3.562-2.7a.728.728 0 01-.248-.816 14.861 14.861 0 012.294-4.276.728.728 0 01.816-.248l4.217 1.457c.138-.124.284-.248.43-.357l-.6-4.421a.729.729 0 01.393-.728 14.725 14.725 0 014.647-1.406.73.73 0 01.728.408l1.945 3.984a2.012 2.012 0 01.554.051l2.7-3.555a.728.728 0 01.816-.248 14.933 14.933 0 014.276 2.28.729.729 0 01.248.823l-1.457 4.217c.124.138.24.284.357.43l4.429-.6a.727.727 0 01.728.4 14.2 14.2 0 01.889 2.265 14.585 14.585 0 01.517 2.375.729.729 0 01-.408.728l-3.992 1.952a1.77 1.77 0 01-.058.554l3.562 2.7a.728.728 0 01.248.816 14.945 14.945 0 01-2.287 4.276.727.727 0 01-.816.24l-4.222-1.457a6.256 6.256 0 01-.43.357l.612 4.429a.729.729 0 01-.408.728 15.147 15.147 0 01-2.258.9 15.464 15.464 0 01-2.382.51zm-3.474-6h.124a9.549 9.549 0 001.238.131.729.729 0 01.634.408l1.9 3.926a12.928 12.928 0 001.632-.386 11.992 11.992 0 001.566-.583l-.59-4.3a.729.729 0 01.3-.728 8.436 8.436 0 00.961-.728.727.727 0 01.728-.16l4.123 1.457a13.627 13.627 0 001.581-2.914l-3.467-2.753a.728.728 0 01-.277-.728 7.926 7.926 0 00.124-1.238.728.728 0 01.415-.634l3.926-1.9a14.361 14.361 0 00-.386-1.632 14.506 14.506 0 00-.583-1.573l-4.312.641a.73.73 0 01-.728-.306 8.075 8.075 0 00-.728-.954.729.729 0 01-.16-.728l1.455-4.133a13.323 13.323 0 00-2.914-1.581l-2.753 3.467a.728.728 0 01-.728.277 7.839 7.839 0 00-1.224-.124.727.727 0 01-.641-.415l-1.9-3.926a13.764 13.764 0 00-1.632.386 13.469 13.469 0 00-1.566.583l.626 4.312a.728.728 0 01-.306.728 8.62 8.62 0 00-.954.787.733.733 0 01-.342.181.725.725 0 01-.386-.02l-4.12-1.455a13.214 13.214 0 00-1.581 2.914l3.46 2.7a.728.728 0 01.277.728 8.777 8.777 0 00-.124 1.246.728.728 0 01-.415.634l-3.926 1.908a13.845 13.845 0 00.386 1.624 14.1 14.1 0 00.583 1.573l4.312-.648a.729.729 0 01.692.306 8.992 8.992 0 00.794.961.728.728 0 01.153.728l-1.457 4.123a12.97 12.97 0 002.914 1.573l2.732-3.47a.73.73 0 01.561-.284z"/><path data-name="Path 9820" d="M38.824 91.149a3.278 3.278 0 111.938-1.591 3.271 3.271 0 01-1.938 1.591z" fill="#fff"/><path data-name="Path 9821" d="M37.877 92.016a3.933 3.933 0 111.158-.168 4.24 4.24 0 01-1.158.168zm0-6.556a2.624 2.624 0 00-.728.109 2.556 2.556 0 10.728-.109z"/><path data-name="Path 9822" d="M36.056 55.596a1.093 1.093 0 01-1.093-1.092 8.741 8.741 0 018.741-8.745 1.093 1.093 0 110 2.185 6.556 6.556 0 00-6.556 6.556 1.092 1.092 0 01-1.093 1.093z" fill="#b8b5c6"/><path data-name="Path 9823" d="M43.704 63.244a1.093 1.093 0 010-2.185 6.555 6.555 0 006.555-6.552 1.093 1.093 0 012.185 0 8.741 8.741 0 01-8.741 8.741z" fill="#b8b5c6"/><path data-name="Path 9824" d="M31.321 89.103a1.092 1.092 0 01-1.093-1.093 7.655 7.655 0 017.648-7.648 1.093 1.093 0 110 2.185 5.471 5.471 0 00-5.463 5.463 1.092 1.092 0 01-1.093 1.093z" fill="#ff91bb"/><path data-name="Path 9825" d="M37.877 95.658a1.093 1.093 0 110-2.185 5.471 5.471 0 005.463-5.463 1.093 1.093 0 112.185 0 7.655 7.655 0 01-7.648 7.648z" fill="#ff91bb"/></g></svg>