<svg data-name="Asset 61" xmlns="http://www.w3.org/2000/svg" width="125" height="117.732"><path data-name="Path 9688" d="M106.651 35.68c-4.554-8.646-2.9-23.734-11.2-28.957-7.974-5.044-20.809 2.731-30.962 2.327S42.197-.151 33.807 4.266C25.156 8.82 25.566 23.979 20.34 32.244 15.271 40.248 1.276 46.258.866 56.41s12.226 17.9 16.679 26.292c4.561 8.646 1.407 21.615 12.045 28.316 8.02 5.044 20.813-2.738 30.965-2.334s22.3 9.2 30.682 4.784c8.651-4.554 8.238-19.713 13.466-27.978 5.076-8 19.065-14.014 19.471-24.166s-13.085-17.257-17.523-25.644z" fill="#e6e6e6"/><path data-name="Path 9689" d="M124.273 117.732H.727a.672.672 0 01-.514-.253.984.984 0 010-1.223.672.672 0 01.514-.253h123.546a.672.672 0 01.514.253.984.984 0 010 1.223.672.672 0 01-.514.253z" fill="#a09cad"/><path data-name="Path 9690" d="M116.719 16.576H18.156v100.292h98.563z" fill="#fff"/><path data-name="Path 9691" d="M64.718 16.576L34.241 116.868H62.53L93.007 16.576z" fill="#ededed"/><path data-name="Path 9692" d="M20.372 116.868h7.729L58.578 16.576h-8.317z" fill="#ededed"/><path data-name="Path 9693" d="M116.72 117.732H18.157a.865.865 0 01-.865-.865v-51.01a.865.865 0 011.729 0v50.146h96.834V17.44H19.021v43.23a.865.865 0 01-1.729 0V16.576a.865.865 0 01.865-.865h98.563a.865.865 0 01.865.865v100.292a.865.865 0 01-.865.865z"/><path data-name="Path 9694" d="M116.719 22.125H18.156v12.1h98.563z" fill="#ff3da2"/><path data-name="Path 9695" d="M93.306 22.125H65.012l-3.67 12.1h28.289z" fill="#ff91bb"/><path data-name="Path 9696" d="M49.758 22.125l-3.614 12.1h8.317l3.683-12.1z" fill="#ff91bb"/><path data-name="Path 9697" d="M116.72 35.182H18.157a.865.865 0 01-.865-.864v-12.1a.865.865 0 01.865-.869h29.4a.865.865 0 010 1.729H19.021v10.371h96.834V23.078H52.74a.865.865 0 010-1.729h63.979a.865.865 0 01.865.865v12.1a.865.865 0 01-.865.865z"/><path data-name="Path 9698" d="M25.937 29.495a1.729 1.729 0 10-1.729-1.729 1.729 1.729 0 001.729 1.729z" fill="#fff"/><path data-name="Path 9699" d="M27.774 29.495a1.729 1.729 0 10-1.729-1.729 1.729 1.729 0 001.729 1.729z" fill="#fff"/><path data-name="Path 9700" d="M33.561 29.495a1.729 1.729 0 10-1.729-1.729 1.729 1.729 0 001.729 1.729z" fill="#fff"/><path data-name="Path 9701" d="M79.635 81.688V60.886l-6.848 22.531h5.12a1.73 1.73 0 001.729-1.729z" fill="#a09cad"/><path data-name="Path 9702" d="M55.897 60.324v1.366l.865-2.853a1.729 1.729 0 00-.865 1.487z" fill="#b8b5c6"/><path data-name="Path 9703" d="M102.832 83.785l4.012-13.194V57.847a1.73 1.73 0 00-1.73-1.729h-6.7l-8.4 27.667z" fill="#a09cad"/><path data-name="Path 9704" d="M85.159 57.847v24.208a1.73 1.73 0 001.729 1.729h1.133l8.238-27.666h-9.372a1.73 1.73 0 00-1.728 1.729z" fill="#a09cad"/><path data-name="Path 9705" d="M97.869 53.782l4.375-14.7H84.191l-4.47 14.7z" fill="#7fb9ff"/><path data-name="Path 9706" d="M26.283 39.082a1.729 1.729 0 00-1.729 1.729v11.24a1.729 1.729 0 001.729 1.731h16.886l4.374-14.7z" fill="#7fb9ff"/><path data-name="Path 9707" d="M59.583 53.782l4.47-14.7H51.222l-4.461 14.7z" fill="#7fb9ff"/><path data-name="Path 9708" d="M105.114 53.782a1.729 1.729 0 001.729-1.729V40.811a1.73 1.73 0 00-1.6-1.729l-4.452 14.7z" fill="#7fb9ff"/><path data-name="Path 9709" d="M70.074 83.149l-7.626 25.073h18.545l7.47-25.073z" fill="#ff3da2"/><path data-name="Path 9710" d="M92.178 83.149l-7.617 25.073h12.817l7.628-25.073z" fill="#ff3da2"/><path data-name="Path 9711" d="M26.572 47.701a1.729 1.729 0 00-1.729 1.729v52.93l16.289-54.659z" fill="#a09cad"/><path data-name="Path 9712" d="M51.154 49.43a1.729 1.729 0 00-1.729-1.729h-1.514l-18.372 60.521h12.813l8.8-28.972z" fill="#a09cad"/><path data-name="Path 9713" d="M81.2 57.847a1.73 1.73 0 00-1.729-1.729H55.262a1.652 1.652 0 00-.865.242l-.864 2.858V82.06a1.73 1.73 0 001.729 1.729h19.09L81.2 61.258z" fill="#b8b5c6"/><path data-name="Path 9714" d="M83.877 53.782l4.47-14.7H60.058l-4.47 14.7z" fill="#afd3ff"/><path data-name="Path 9715" d="M56.184 83.149a1.73 1.73 0 00-1.729 1.729v21.615a1.73 1.73 0 001.729 1.729h9.1l7.63-25.073z" fill="#ff91bb"/><path data-name="Path 9716" d="M49.602 106.493V79.25l-8.8 28.972h7.072a1.73 1.73 0 001.729-1.729z" fill="#b8b5c6"/><path data-name="Path 9717" d="M53 39.082h-8.269l-4.38 14.7h8.188z" fill="#afd3ff"/><path data-name="Path 9718" d="M40.777 47.701L24.488 102.36v4.133a1.73 1.73 0 001.729 1.729h4.323l18.373-60.521z" fill="#b8b5c6"/><path data-name="Path 9719" d="M105.115 82.825a1.73 1.73 0 001.729-1.729V69.631l-4.012 13.194z" fill="#b8b5c6"/><path data-name="Path 9720" d="M106.843 106.493V84.878a1.73 1.73 0 00-1.729-1.729h-4.643l-7.617 25.073h12.26a1.73 1.73 0 001.729-1.729z" fill="#ff91bb"/><path data-name="Path 9721" d="M86.802 83.785h7.972l8.403-27.667h-8.135z" fill="#b8b5c6"/><path data-name="Path 9722" d="M100.792 53.782l4.461-14.7h-8.279l-4.37 14.7z" fill="#afd3ff"/><path data-name="Path 9723" d="M86.357 83.149l-7.47 25.073h7.781l7.617-25.073z" fill="#ff91bb"/><path data-name="Path 9724" d="M79.451 84.61H55.245a2.594 2.594 0 01-2.594-2.6V57.804a2.594 2.594 0 012.594-2.594h24.206a2.594 2.594 0 012.594 2.594V82.01a2.595 2.595 0 01-2.594 2.6zM55.245 56.939a.865.865 0 00-.865.865V82.01a.865.865 0 00.865.865h24.206a.865.865 0 00.865-.865V57.804a.865.865 0 00-.865-.865z"/><path data-name="Path 9725" d="M105.115 54.682H8.281a2.594 2.594 0 01-2.594-2.594V40.849a2.594 2.594 0 012.594-2.594h96.834a2.594 2.594 0 012.594 2.594v11.24a2.594 2.594 0 01-2.594 2.594zm-96.834-14.7a.865.865 0 00-.865.865v11.24a.865.865 0 00.865.865h96.834a.865.865 0 00.865-.865V40.849a.865.865 0 00-.865-.865z"/><path data-name="Path 9726" d="M105.114 109.084H44.593a2.594 2.594 0 01-2.594-2.592V84.878a2.594 2.594 0 012.594-2.594h24.206a.865.865 0 010 1.729H44.593a.865.865 0 00-.865.865v21.615a.865.865 0 00.865.865h60.521a.865.865 0 00.865-.865V84.878a.865.865 0 00-.865-.865H73.989a.865.865 0 010-1.729h31.125a2.595 2.595 0 012.594 2.594v21.615a2.595 2.595 0 01-2.594 2.594z"/><path data-name="Path 9727" d="M50.355 109.086H26.149a2.594 2.594 0 01-2.594-2.593V49.43a2.594 2.594 0 012.594-2.594h24.206a2.594 2.594 0 012.6 2.594v57.063a2.594 2.594 0 01-2.6 2.593zM26.149 48.565a.865.865 0 00-.865.865v57.063a.865.865 0 00.865.865h24.206a.865.865 0 00.865-.865V49.43a.865.865 0 00-.865-.865z"/><path data-name="Path 9728" d="M105.112 84.61H80.906a2.595 2.595 0 01-2.594-2.6V57.804a2.594 2.594 0 012.594-2.594h24.206a2.594 2.594 0 012.594 2.594v5.188a.865.865 0 01-1.729 0v-5.188a.865.865 0 00-.865-.865H80.906a.865.865 0 00-.865.865V82.01a.865.865 0 00.865.865h24.206a.865.865 0 00.865-.865V68.179a.865.865 0 011.729 0V82.01a2.595 2.595 0 01-2.594 2.6z"/><path data-name="Path 9729" d="M28.853 6.052h-8.645a.865.865 0 010-1.729h8.645a.865.865 0 010 1.729z" fill="#a09cad"/><path data-name="Path 9730" d="M28.532 10.375a.865.865 0 01-.865-.865V.865a.865.865 0 011.729 0V9.51a.865.865 0 01-.865.865z" fill="#a09cad"/><path data-name="Path 9731" d="M91.18 13.833h-8.646a.865.865 0 010-1.729h8.646a.865.865 0 010 1.729z" fill="#a09cad"/><path data-name="Path 9732" d="M87.154 18.156a.865.865 0 01-.865-.865V8.646a.865.865 0 011.729 0v8.645a.865.865 0 01-.865.865z" fill="#a09cad"/><path data-name="Path 9733" d="M13.833 92.659H6.917a.865.865 0 010-1.729h6.917a.865.865 0 010 1.729z" fill="#a09cad"/><path data-name="Path 9734" d="M10.375 99.791a.865.865 0 01-.865-.865v-6.917a.865.865 0 011.729 0v6.917a.865.865 0 01-.865.865z" fill="#a09cad"/><path data-name="Path 9735" d="M57.339 18.156h-6.916a.865.865 0 010-1.729h6.917a.865.865 0 010 1.729z" fill="#a09cad"/><path data-name="Path 9736" d="M53.799 21.615a.865.865 0 01-.865-.865v-6.916a.865.865 0 011.729 0v6.917a.865.865 0 01-.865.865z" fill="#a09cad"/><path data-name="Path 9737" d="M9.51 56.106H.865a.865.865 0 010-1.729H9.51a.865.865 0 010 1.729z" fill="#a09cad"/><path data-name="Path 9738" d="M5.188 60.475a.865.865 0 01-.865-.865v-8.645a.865.865 0 111.729 0v8.645a.865.865 0 01-.865.865z" fill="#a09cad"/><path data-name="Path 9739" d="M124.135 44.505h-6.917a.865.865 0 010-1.729h6.917a.865.865 0 010 1.729z" fill="#a09cad"/><path data-name="Path 9740" d="M120.677 48.118a.865.865 0 01-.865-.865v-6.916a.865.865 0 011.729 0v6.917a.865.865 0 01-.865.865z" fill="#a09cad"/><path data-name="Path 9741" d="M118.083 85.831h-6.917a.865.865 0 010-1.729h6.917a.865.865 0 010 1.729z" fill="#a09cad"/><path data-name="Path 9742" d="M114.625 89.026a.865.865 0 01-.865-.865v-6.917a.865.865 0 011.729 0v6.917a.865.865 0 01-.865.865z" fill="#a09cad"/></svg>