<?xml version="1.0" encoding="UTF-8"?>
<svg version="1.1" xmlns="http://www.w3.org/2000/svg" width="204" height="270">
<path d="M0 0 C67.32 0 134.64 0 204 0 C204 89.1 204 178.2 204 270 C136.68 270 69.36 270 0 270 C0 180.9 0 91.8 0 0 Z " fill="#F7FAFB" transform="translate(0,0)"/>
<path d="M0 0 C23.1 0 46.2 0 70 0 C70 89.1 70 178.2 70 270 C2.68 270 -64.64 270 -134 270 C-134 259.77 -134 249.54 -134 239 C-118.25 237.875 -118.25 237.875 -112.5078125 237.90234375 C-110.85483154 237.90609009 -110.85483154 237.90609009 -109.16845703 237.90991211 C-107.1669458 237.92356812 -107.1669458 237.92356812 -105.125 237.9375 C-98.628125 237.9684375 -98.628125 237.9684375 -92 238 C-92 247.24 -92 256.48 -92 266 C-91.34 266 -90.68 266 -90 266 C-90 257.09 -90 248.18 -90 239 C-80.76 239 -71.52 239 -62 239 C-62 247.91 -62 256.82 -62 266 C-61.34 266 -60.68 266 -60 266 C-60 256.76 -60 247.52 -60 238 C-50.76 238 -41.52 238 -32 238 C-32 247.24 -32 256.48 -32 266 C-31.34 266 -30.68 266 -30 266 C-30 257.09 -30 248.18 -30 239 C-20.76 239 -11.52 239 -2 239 C-2 247.91 -2 256.82 -2 266 C-1.34 266 -0.68 266 0 266 C0 257.09 0 248.18 0 239 C9.9 239 19.8 239 30 239 C29.67 238.01 29.34 237.02 29 236 C28.91733514 234.08093083 28.89259337 232.15910526 28.90234375 230.23828125 C28.90556641 229.12001953 28.90878906 228.00175781 28.91210938 226.84960938 C28.92048828 225.68236328 28.92886719 224.51511719 28.9375 223.3125 C28.94201172 222.13365234 28.94652344 220.95480469 28.95117188 219.74023438 C28.96296727 216.82677211 28.9794273 213.91341137 29 211 C31.31 211 33.62 211 36 211 C36 218.59 36 226.18 36 234 C38.64 234 41.28 234 44 234 C44 226.08 44 218.16 44 210 C46.97 210 49.94 210 53 210 C53 207.69 53 205.38 53 203 C45.41 203 37.82 203 30 203 C29.81481548 197.39559617 29.65612269 191.80206523 29.56054688 186.19702148 C29.5206631 184.29691346 29.46633249 182.39704533 29.39648438 180.49780273 C28.92484554 167.33006264 29.83433429 159.69335849 38 149 C39.02298974 147.2838001 40.01575199 145.54899976 40.96875 143.79296875 C41.39414063 143.02275391 41.81953125 142.25253906 42.2578125 141.45898438 C42.66773438 140.70939453 43.07765625 139.95980469 43.5 139.1875 C44.16128906 137.98770508 44.16128906 137.98770508 44.8359375 136.76367188 C45.89347339 134.84401434 46.94718484 132.92225063 48 131 C48.66 131 49.32 131 50 131 C51.9851448 125.0445656 52.08104058 119.54754502 49.60595703 113.71484375 C47.69625774 110.23881847 45.6700358 106.85762406 43.5625 103.5 C42.84602134 102.3243067 42.13181033 101.14722835 41.41992188 99.96875 C40.12214108 97.82275459 38.81350411 95.68325885 37.49047852 93.55273438 C36 91 36 91 35 88 C33.02 88 31.04 88 29 88 C28.72776611 88.70664795 28.45553223 89.4132959 28.17504883 90.14135742 C26.0217289 95.37992444 23.36536599 100.3268322 20.6875 105.3125 C20.13771484 106.43462891 19.58792969 107.55675781 19.02148438 108.71289062 C17.23497615 111.97460653 15.73849315 114.47517637 13 117 C8.50654365 117.96775147 4.51767163 117.72130171 0 117 C0.99 116.67 1.98 116.34 3 116 C3.14731567 114.95271729 3.14731567 114.95271729 3.29760742 113.88427734 C4.12734602 110.47707131 5.51631029 107.90650007 7.23828125 104.8515625 C7.7213398 103.98813736 7.7213398 103.98813736 8.2141571 103.10726929 C9.24058452 101.27618887 10.27636687 99.45060237 11.3125 97.625 C11.99736487 96.40659834 12.68161552 95.18785121 13.36523438 93.96875 C13.86396561 93.08156281 13.86396561 93.08156281 14.37277222 92.17645264 C15.34277336 90.45055173 16.31129536 88.72381977 17.27978516 86.99707031 C18.27331459 85.26607865 19.29141998 83.54778586 20.37255859 81.87011719 C22.57749804 78.44366655 23.77004205 75.38604559 23.53857422 71.25439453 C22.32259388 66.16447503 19.2892805 61.84026647 16.5625 57.4375 C15.92812012 56.36322754 15.29374023 55.28895508 14.64013672 54.18212891 C11.96669944 49.68210273 9.31256549 45.2646025 6.06640625 41.15234375 C-4.06404624 27.55322433 0 19.78232231 0 0 Z " fill="#F8FAFB" transform="translate(134,0)"/>
<path d="M0 0 C20.46 0 40.92 0 62 0 C62.33 9.9 62.66 19.8 63 30 C65.76112683 35.84709212 67.72800838 39.87829541 71.41894531 44.80810547 C74.5981237 49.21555816 77.32936946 53.90670583 80.125 58.5625 C80.70540039 59.47966797 81.28580078 60.39683594 81.88378906 61.34179688 C87.06214151 69.83018458 87.06214151 69.83018458 86.64453125 74.75512695 C85.03653533 80.35570364 81.85762161 85.31334518 78.9375 90.3125 C78.27258614 91.48287168 77.60916341 92.65409183 76.94726562 93.82617188 C72.85459899 101.02734594 68.51608093 108.05726299 64 115 C61.70825195 114.80249023 61.70825195 114.80249023 59 114 C57.23901367 111.89868164 57.23901367 111.89868164 55.66796875 109.16015625 C55.09755859 108.17982422 54.52714844 107.19949219 53.93945312 106.18945312 C53.36130859 105.15755859 52.78316406 104.12566406 52.1875 103.0625 C51.59001953 102.03447266 50.99253906 101.00644531 50.37695312 99.94726562 C46 92.32886607 46 92.32886607 46 90 C23.04992666 86.54641869 23.04992666 86.54641869 1.17816162 91.02630615 C-4.92085139 96.02200222 -7.75384084 103.88433217 -9.94311523 111.22924805 C-11.64592316 115.69336612 -14.05269233 118.36846155 -18 121 C-20.18302917 121.24050903 -20.18302917 121.24050903 -22.74682617 121.22705078 C-23.70759567 121.22689972 -24.66836517 121.22674866 -25.6582489 121.22659302 C-26.69270645 121.21627045 -27.727164 121.20594788 -28.79296875 121.1953125 C-30.38471672 121.19106766 -30.38471672 121.19106766 -32.00862122 121.18673706 C-35.40169497 121.17553184 -38.79450587 121.15042647 -42.1875 121.125 C-44.48632432 121.11497065 -46.78515276 121.10584472 -49.08398438 121.09765625 C-54.72274611 121.07559141 -60.36135428 121.04211044 -66 121 C-65.24609029 116.74326631 -63.93014727 113.74272721 -61.75390625 109.984375 C-61.42693756 109.4153093 -61.09996887 108.84624359 -60.76309204 108.25993347 C-59.70311154 106.41921196 -58.63316438 104.58452426 -57.5625 102.75 C-56.83129006 101.48669707 -56.10057909 100.22310521 -55.37036133 98.95922852 C-53.92273599 96.45679686 -52.47072879 93.95699373 -51.01464844 91.45947266 C-49.27317626 88.4722033 -47.54473229 85.47762087 -45.8203125 82.48046875 C-44.94338164 80.96575583 -44.06583928 79.45139666 -43.1875 77.9375 C-42.79828369 77.26106445 -42.40906738 76.58462891 -42.00805664 75.88769531 C-38.46770657 69.84570929 -38.46770657 69.84570929 -36 68 C-35.01 68 -34.02 68 -33 68 C-33 67.34 -33 66.68 -33 66 C-32.01 66 -31.02 66 -30 66 C-30.05220703 65.14728516 -30.05220703 65.14728516 -30.10546875 64.27734375 C-30.13253906 63.50519531 -30.15960938 62.73304687 -30.1875 61.9375 C-30.22230469 61.18339844 -30.25710937 60.42929687 -30.29296875 59.65234375 C-29.56257204 53.0398189 -25.45590347 46.9619609 -22.25 41.25 C-21.8075293 40.46157715 -21.36505859 39.6731543 -20.90917969 38.86083984 C-19.61465069 36.56889456 -18.31041597 34.28289344 -17 32 C-16.47986328 31.09072754 -16.47986328 31.09072754 -15.94921875 30.16308594 C-9.93130304 19.76794142 -9.93130304 19.76794142 -4 17 C-2.68 17 -1.36 17 0 17 C0 11.39 0 5.78 0 0 Z " fill="#EFF4F7" transform="translate(72,0)"/>
<path d="M0 0 C3.03393555 0.62963867 3.03393555 0.62963867 4.95263672 2.75341797 C5.75664917 4.2138855 5.75664917 4.2138855 6.5769043 5.70385742 C7.17567383 6.76411133 7.77444336 7.82436523 8.39135742 8.91674805 C8.9952832 10.03887695 9.59920898 11.16100586 10.22143555 12.31713867 C10.83696289 13.41993164 11.45249023 14.52272461 12.08666992 15.65893555 C13.2360222 17.71980014 14.37596978 19.78595785 15.50341797 21.85888672 C16.5230946 23.70484461 17.59192734 25.52449278 18.70776367 27.31396484 C20.32755245 30.14233314 20.40440104 32.0174891 20.34643555 35.25463867 C20.34256836 36.1956543 20.33870117 37.13666992 20.3347168 38.10620117 C20.03393555 40.62963867 20.03393555 40.62963867 18.03393555 43.62963867 C17.37393555 43.62963867 16.71393555 43.62963867 16.03393555 43.62963867 C15.76838867 44.33088867 15.5028418 45.03213867 15.22924805 45.75463867 C13.95265739 48.82513123 12.48328998 51.70060717 10.90893555 54.62963867 C10.04324469 56.25332679 9.17779318 57.87714356 8.31420898 59.50195312 C7.03393555 61.62963867 7.03393555 61.62963867 5.04272461 64.21630859 C-2.28890583 74.32960738 -2.09915144 83.76467921 -1.96606445 95.94213867 C-1.97417294 97.85817298 -1.98586534 99.77419562 -2.0012207 101.69018555 C-2.03739785 106.33894941 -2.00021497 110.97876543 -1.96606445 115.62963867 C5.62393555 115.62963867 13.21393555 115.62963867 21.03393555 115.62963867 C21.03393555 117.93963867 21.03393555 120.24963867 21.03393555 122.62963867 C18.06393555 122.62963867 15.09393555 122.62963867 12.03393555 122.62963867 C12.03393555 130.54963867 12.03393555 138.46963867 12.03393555 146.62963867 C9.72393555 146.62963867 7.41393555 146.62963867 5.03393555 146.62963867 C5.03393555 138.70963867 5.03393555 130.78963867 5.03393555 122.62963867 C-5.19606445 122.62963867 -15.42606445 122.62963867 -25.96606445 122.62963867 C-25.96606445 124.93963867 -25.96606445 127.24963867 -25.96606445 129.62963867 C-21.67606445 129.62963867 -17.38606445 129.62963867 -12.96606445 129.62963867 C-12.96606445 131.60963867 -12.96606445 133.58963867 -12.96606445 135.62963867 C-17.25606445 135.62963867 -21.54606445 135.62963867 -25.96606445 135.62963867 C-25.96606445 139.25963867 -25.96606445 142.88963867 -25.96606445 146.62963867 C-28.60606445 146.62963867 -31.24606445 146.62963867 -33.96606445 146.62963867 C-33.96606445 128.47963867 -33.96606445 110.32963867 -33.96606445 91.62963867 C-43.20606445 91.62963867 -52.44606445 91.62963867 -61.96606445 91.62963867 C-61.96606445 99.54963867 -61.96606445 107.46963867 -61.96606445 115.62963867 C-57.01606445 115.62963867 -52.06606445 115.62963867 -46.96606445 115.62963867 C-46.96606445 116.28963867 -46.96606445 116.94963867 -46.96606445 117.62963867 C-44.98606445 118.61963867 -44.98606445 118.61963867 -42.96606445 119.62963867 C-42.84983506 123.37937773 -42.77880495 127.12865332 -42.71606445 130.87963867 C-42.68254883 131.94311523 -42.6490332 133.0065918 -42.61450195 134.10229492 C-42.59516602 135.63950195 -42.59516602 135.63950195 -42.57543945 137.20776367 C-42.54401855 138.6217041 -42.54401855 138.6217041 -42.51196289 140.06420898 C-43.10970924 143.4411545 -44.25337904 144.58512121 -46.96606445 146.62963867 C-50.10061171 147.41291701 -53.24432833 147.23344298 -56.46606445 147.19213867 C-57.32071289 147.21598633 -58.17536133 147.23983398 -59.0559082 147.2644043 C-63.01166063 147.25514747 -65.26715372 147.13068427 -68.5324707 144.78979492 C-70.68441144 140.04614355 -70.50702501 135.65096697 -70.40356445 130.50463867 C-70.4106543 129.50303711 -70.41774414 128.50143555 -70.42504883 127.46948242 C-70.36130191 120.16310479 -70.36130191 120.16310479 -68.62646484 117.8215332 C-66.96606445 116.62963867 -66.96606445 116.62963867 -63.96606445 116.62963867 C-63.96606445 108.37963867 -63.96606445 100.12963867 -63.96606445 91.62963867 C-73.20606445 91.62963867 -82.44606445 91.62963867 -91.96606445 91.62963867 C-91.96606445 99.54963867 -91.96606445 107.46963867 -91.96606445 115.62963867 C-88.33606445 115.62963867 -84.70606445 115.62963867 -80.96606445 115.62963867 C-79.96606445 116.62963867 -79.96606445 116.62963867 -79.96606445 122.62963867 C-87.88606445 123.12463867 -87.88606445 123.12463867 -95.96606445 123.62963867 C-95.96606445 124.94963867 -95.96606445 126.26963867 -95.96606445 127.62963867 C-95.16942383 127.66702148 -94.3727832 127.7044043 -93.55200195 127.74291992 C-87.64829871 128.10920808 -82.99662942 128.41566661 -77.96606445 131.62963867 C-77.85695218 133.19055033 -77.77997047 134.75372359 -77.71606445 136.31713867 C-77.6696582 137.18725586 -77.62325195 138.05737305 -77.57543945 138.95385742 C-78.12978715 142.75113918 -79.00551689 144.15442678 -81.96606445 146.62963867 C-85.38077116 147.26632411 -88.69373779 147.14585609 -92.15356445 147.00463867 C-93.08104492 146.99045898 -94.00852539 146.9762793 -94.96411133 146.96166992 C-101.78369488 146.81200825 -101.78369488 146.81200825 -102.96606445 145.62963867 C-102.96606445 143.97963867 -102.96606445 142.32963867 -102.96606445 140.62963867 C-97.35606445 140.62963867 -91.74606445 140.62963867 -85.96606445 140.62963867 C-85.96606445 138.64963867 -85.96606445 136.66963867 -85.96606445 134.62963867 C-87.41239258 134.71665039 -87.41239258 134.71665039 -88.88793945 134.80541992 C-90.1512207 134.85053711 -91.41450195 134.8956543 -92.71606445 134.94213867 C-94.59551758 135.02915039 -94.59551758 135.02915039 -96.51293945 135.11791992 C-99.96606445 134.62963867 -99.96606445 134.62963867 -102.3840332 132.42651367 C-104.80774644 128.14162805 -104.90284703 124.41853579 -103.96606445 119.62963867 C-101.77856445 117.00463867 -101.77856445 117.00463867 -98.96606445 115.62963867 C-97.31606445 115.62963867 -95.66606445 115.62963867 -93.96606445 115.62963867 C-93.96606445 107.37963867 -93.96606445 99.12963867 -93.96606445 90.62963867 C-96.20645508 90.66444336 -98.4468457 90.69924805 -100.75512695 90.73510742 C-102.93952156 90.75854413 -105.12390184 90.77673716 -107.30834961 90.79443359 C-108.81948173 90.80946411 -110.33057063 90.82989431 -111.84155273 90.85595703 C-114.02118632 90.89259557 -116.2002402 90.90942206 -118.38012695 90.92260742 C-119.68933105 90.93831787 -120.99853516 90.95402832 -122.34741211 90.97021484 C-126.27884071 90.60020116 -128.63718973 89.72127299 -131.96606445 87.62963867 C-133.67554055 85.27204816 -135.03664074 83.10883259 -136.40356445 80.56713867 C-137.25452659 79.04987471 -138.10613457 77.53297288 -138.95825195 76.01635742 C-139.42585938 75.17250488 -139.8934668 74.32865234 -140.37524414 73.45922852 C-142.18036835 70.24845664 -144.0414265 67.07238646 -145.91137695 63.89916992 C-146.94243736 62.14221512 -147.97271715 60.38480506 -149.00271606 58.62722778 C-150.01606766 56.90092765 -151.03388604 55.17725207 -152.05175781 53.45361328 C-152.67445557 52.38248291 -153.29715332 51.31135254 -153.9387207 50.20776367 C-154.49825439 49.25289062 -155.05778809 48.29801758 -155.63427734 47.31420898 C-156.92926266 44.70382246 -157.55138792 42.50012538 -157.96606445 39.62963867 C-140.55195957 39.33669111 -140.55195957 39.33669111 -135.96606445 41.62963867 C-134.61308014 41.77776126 -133.25477027 41.87918445 -131.89575195 41.95385742 C-131.08106445 42.01379883 -130.26637695 42.07374023 -129.42700195 42.13549805 C-127.72763803 42.25486424 -126.02695625 42.35695918 -124.32543945 42.44018555 C-117.77041544 42.96931366 -113.45275212 44.73761696 -108.96606445 49.62963867 C-106.09098655 53.73787122 -103.67510882 58.04148099 -101.27856445 62.44213867 C-100.64112305 63.57973633 -100.00368164 64.71733398 -99.34692383 65.8894043 C-98.10591475 68.10887667 -96.87521575 70.33415228 -95.65600586 72.56567383 C-94.59650842 74.48660606 -93.51360186 76.39500879 -92.3972168 78.28344727 C-91.71006592 79.45061279 -91.71006592 79.45061279 -91.0090332 80.64135742 C-90.61095459 81.29966553 -90.21287598 81.95797363 -89.80273438 82.63623047 C-88.78036587 85.07207488 -88.81768013 87.01404579 -88.96606445 89.62963867 C-88.16491211 89.55817627 -87.36375977 89.48671387 -86.53833008 89.41308594 C-72.54506933 88.34607185 -58.54251002 88.51426401 -44.51727295 88.56097412 C-41.06401183 88.5713523 -37.61074304 88.57580226 -34.1574707 88.58081055 C-27.42698245 88.591738 -20.69652765 88.60839766 -13.96606445 88.62963867 C-13.63606445 87.96963867 -13.30606445 87.30963867 -12.96606445 86.62963867 C-12.63606445 87.61963867 -12.30606445 88.60963867 -11.96606445 89.62963867 C-9.32606445 89.62963867 -6.68606445 89.62963867 -3.96606445 89.62963867 C-3.96606445 87.31963867 -3.96606445 85.00963867 -3.96606445 82.62963867 C-5.61606445 82.62963867 -7.26606445 82.62963867 -8.96606445 82.62963867 C-11.91115907 75.61714119 -14.83979037 68.59802976 -17.74780273 61.57006836 C-18.47206743 59.82196335 -19.19870554 58.07483385 -19.93041992 56.32983398 C-25.54264034 42.92117763 -25.54264034 42.92117763 -23.28442383 36.77416992 C-20.32207355 30.01214551 -16.66548604 23.72373073 -12.90356445 17.37963867 C-12.27901367 16.31745117 -11.65446289 15.25526367 -11.01098633 14.16088867 C-9.33517391 11.31361721 -7.65433324 8.46953948 -5.96606445 5.62963867 C-5.5285083 4.6928125 -5.09095215 3.75598633 -4.64013672 2.79077148 C-2.96606445 0.62963867 -2.96606445 0.62963867 0 0 Z " fill="#E2E7EA" transform="translate(165.966064453125,87.370361328125)"/>
<path d="M0 0 C0.89772125 -0.0066568 1.7954425 -0.0133136 2.72036743 -0.02017212 C4.62182564 -0.03030833 6.52331949 -0.03498884 8.42480469 -0.03466797 C11.33328028 -0.03903505 14.24023123 -0.07532669 17.1484375 -0.11328125 C18.99478647 -0.11915043 20.84114266 -0.12311915 22.6875 -0.125 C23.5574057 -0.13937103 24.4273114 -0.15374207 25.32357788 -0.16854858 C31.33715322 -0.12309546 31.33715322 -0.12309546 34.36865234 2.05322266 C36.04098137 4.42739156 37.57088889 6.78669324 38.9921875 9.3203125 C39.78496094 10.72216797 39.78496094 10.72216797 40.59375 12.15234375 C41.13257812 13.12042969 41.67140625 14.08851562 42.2265625 15.0859375 C42.78085938 16.06949219 43.33515625 17.05304688 43.90625 18.06640625 C45.26893342 20.48634404 46.62544949 22.90952664 47.9765625 25.3359375 C49.6265625 25.3359375 51.2765625 25.3359375 52.9765625 25.3359375 C52.9765625 25.9959375 52.9765625 26.6559375 52.9765625 27.3359375 C55.9465625 27.6659375 58.9165625 27.9959375 61.9765625 28.3359375 C61.1953125 30.45182292 60.4140625 32.56770833 59.6328125 34.68359375 C57.83149535 41.96391722 59.76742293 47.21400869 62.6015625 53.8359375 C63.33333374 55.6041665 64.06510457 57.37239566 64.796875 59.140625 C65.16329102 60.01299805 65.52970703 60.88537109 65.90722656 61.78417969 C67.46300899 65.49674543 68.97377464 69.22668118 70.4765625 72.9609375 C70.96125 74.14945312 71.4459375 75.33796875 71.9453125 76.5625 C72.9765625 79.3359375 72.9765625 79.3359375 72.9765625 81.3359375 C74.6265625 81.3359375 76.2765625 81.3359375 77.9765625 81.3359375 C77.9765625 83.6459375 77.9765625 85.9559375 77.9765625 88.3359375 C75.3365625 88.3359375 72.6965625 88.3359375 69.9765625 88.3359375 C69.6465625 87.6759375 69.3165625 87.0159375 68.9765625 86.3359375 C68.6465625 86.6659375 68.3165625 86.9959375 67.9765625 87.3359375 C65.63503409 87.46077904 63.32148665 87.52193041 60.97827148 87.54125977 C60.24660767 87.55115936 59.51494385 87.56105896 58.7611084 87.57125854 C56.33165778 87.60296133 53.90218757 87.62766543 51.47265625 87.65234375 C49.79256163 87.67290572 48.11247227 87.69390198 46.43238831 87.71531677 C42.00188447 87.77061576 37.57133335 87.81999037 33.14074707 87.86816406 C28.62308525 87.9183221 24.10549242 87.97403783 19.58789062 88.02929688 C10.7175068 88.1369741 1.84706318 88.23839768 -7.0234375 88.3359375 C-7.20351852 87.75368408 -7.38359955 87.17143066 -7.56913757 86.5715332 C-9.05343711 81.92468724 -10.67386407 77.74277901 -13.16796875 73.5234375 C-13.76287109 72.51023437 -14.35777344 71.49703125 -14.97070312 70.453125 C-15.58623047 69.42445313 -16.20175781 68.39578125 -16.8359375 67.3359375 C-17.74182617 65.79292969 -17.74182617 65.79292969 -18.66601562 64.21875 C-20.42574615 61.24103591 -22.21480433 58.28416692 -24.0234375 55.3359375 C-24.55501465 54.46195313 -25.0865918 53.58796875 -25.63427734 52.6875 C-29.25857304 46.82038494 -29.25857304 46.82038494 -35.0234375 43.3359375 C-38.24184948 42.75825497 -41.45246874 42.46140006 -44.7109375 42.2109375 C-46.42345886 42.06578699 -48.13571826 41.91750121 -49.84765625 41.765625 C-50.60135498 41.70616699 -51.35505371 41.64670898 -52.1315918 41.58544922 C-54.0234375 41.3359375 -54.0234375 41.3359375 -56.0234375 40.3359375 C-57.46856187 40.11811283 -58.92080428 39.94620082 -60.375 39.80078125 C-61.22578125 39.71376953 -62.0765625 39.62675781 -62.953125 39.53710938 C-63.84257813 39.45009766 -64.73203125 39.36308594 -65.6484375 39.2734375 C-66.545625 39.18255859 -67.4428125 39.09167969 -68.3671875 38.99804688 C-70.58561022 38.77384458 -72.8043351 38.55329184 -75.0234375 38.3359375 C-75.0234375 37.6759375 -75.0234375 37.0159375 -75.0234375 36.3359375 C-74.0334375 36.3359375 -73.0434375 36.3359375 -72.0234375 36.3359375 C-72.0234375 35.3459375 -72.0234375 34.3559375 -72.0234375 33.3359375 C-74.3334375 33.3359375 -76.6434375 33.3359375 -79.0234375 33.3359375 C-78.6934375 32.3459375 -78.3634375 31.3559375 -78.0234375 30.3359375 C-78.0234375 30.9959375 -78.0234375 31.6559375 -78.0234375 32.3359375 C-71.27860367 32.29427822 -64.53459566 32.22196173 -57.7902832 32.12841797 C-55.49641376 32.10020868 -53.20244712 32.07899397 -50.90844727 32.06494141 C-47.60903157 32.04351199 -44.31078448 31.99685967 -41.01171875 31.9453125 C-39.47551628 31.94346954 -39.47551628 31.94346954 -37.90827942 31.94158936 C-33.65042831 31.85418839 -30.8056648 31.77754025 -27.05419922 29.65966797 C-24.79984439 27.08008763 -23.17195168 24.56230288 -21.54296875 21.546875 C-20.93646484 20.44085938 -20.32996094 19.33484375 -19.70507812 18.1953125 C-19.08826172 17.04546875 -18.47144531 15.895625 -17.8359375 14.7109375 C-16.59526359 12.42555253 -15.35190608 10.14162174 -14.10546875 7.859375 C-13.56124268 6.84794434 -13.0170166 5.83651367 -12.45629883 4.79443359 C-9.2808667 -0.65395652 -5.79478556 0.01475723 0 0 Z " fill="#F5F9FB" transform="translate(84.0234375,88.6640625)"/>
<path d="M0 0 C9.24 0 18.48 0 28 0 C28.103125 4.063125 28.20625 8.12625 28.3125 12.3125 C28.35802002 13.59036377 28.40354004 14.86822754 28.45043945 16.18481445 C28.46292725 17.1924585 28.47541504 18.20010254 28.48828125 19.23828125 C28.51446533 20.26993408 28.54064941 21.30158691 28.56762695 22.36450195 C28.38031006 23.23421631 28.19299316 24.10393066 28 25 C26.34924099 26.02604702 24.68237422 27.02665795 23 28 C22.26649935 30.32994551 22.26649935 30.32994551 22.40625 32.96484375 C22.41011719 34.41213867 22.41011719 34.41213867 22.4140625 35.88867188 C22.44242187 36.89478516 22.47078125 37.90089844 22.5 38.9375 C22.49742188 39.93974609 22.49484375 40.94199219 22.4921875 41.97460938 C22.43013766 48.63212231 22.43013766 48.63212231 26 54 C28.06073365 54.59449505 28.06073365 54.59449505 30.34375 54.49609375 C31.17777344 54.49673828 32.01179688 54.49738281 32.87109375 54.49804688 C33.73863281 54.47806641 34.60617188 54.45808594 35.5 54.4375 C36.36753906 54.44458984 37.23507813 54.45167969 38.12890625 54.45898438 C42.69202097 54.57161382 42.69202097 54.57161382 46.74658203 52.80126953 C48.44257885 50.36397609 48.3877435 48.70145724 48.3984375 45.74609375 C48.40230469 44.72708984 48.40617187 43.70808594 48.41015625 42.65820312 C48.39855469 41.59537109 48.38695313 40.53253906 48.375 39.4375 C48.38660156 38.37080078 48.39820312 37.30410156 48.41015625 36.20507812 C48.40628906 35.18736328 48.40242188 34.16964844 48.3984375 33.12109375 C48.39336182 31.72008423 48.39336182 31.72008423 48.38818359 30.29077148 C48.26008301 29.53481689 48.13198242 28.7788623 48 28 C47.01 27.34 46.02 26.68 45 26 C45 25.34 45 24.68 45 24 C40.05 24 35.1 24 30 24 C30 16.08 30 8.16 30 0 C39.24 0 48.48 0 58 0 C58 18.15 58 36.3 58 55 C60.64 55 63.28 55 66 55 C66 51.37 66 47.74 66 44 C70.29 44 74.58 44 79 44 C79 42.02 79 40.04 79 38 C74.71 38 70.42 38 66 38 C66 35.69 66 33.38 66 31 C69.29101502 30.79970499 72.58280107 30.61719549 75.875 30.4375 C77.25171875 30.35338867 77.25171875 30.35338867 78.65625 30.26757812 C79.57148438 30.21923828 80.48671875 30.17089844 81.4296875 30.12109375 C82.25710449 30.0739624 83.08452148 30.02683105 83.93701172 29.97827148 C88.30453012 30.0092542 92.65404742 30.56540474 97 31 C97 38.92 97 46.84 97 55 C96.67 55 96.34 55 96 55 C96 47.41 96 39.82 96 32 C93.69 32 91.38 32 89 32 C89.33 41.24 89.66 50.48 90 60 C80.1 60 70.2 60 60 60 C60 68.91 60 77.82 60 87 C59.34 87 58.68 87 58 87 C58 78.09 58 69.18 58 60 C48.76 60 39.52 60 30 60 C30 68.91 30 77.82 30 87 C29.34 87 28.68 87 28 87 C28 77.76 28 68.52 28 59 C18.76 59 9.52 59 0 59 C0 68.24 0 77.48 0 87 C-0.66 87 -1.32 87 -2 87 C-2 78.09 -2 69.18 -2 60 C-11.24 60 -20.48 60 -30 60 C-30 68.91 -30 77.82 -30 87 C-30.66 87 -31.32 87 -32 87 C-32 77.76 -32 68.52 -32 59 C-40.58434219 59.32615738 -40.58434219 59.32615738 -49.16845703 59.65820312 C-57.45240048 59.96344567 -65.71095368 60.05737467 -74 60 C-74 59.34 -74 58.68 -74 58 C-73.14535156 57.95101562 -72.29070312 57.90203125 -71.41015625 57.8515625 C-70.30542969 57.77679688 -69.20070313 57.70203125 -68.0625 57.625 C-66.40927734 57.52058594 -66.40927734 57.52058594 -64.72265625 57.4140625 C-63.82417969 57.27742188 -62.92570312 57.14078125 -62 57 C-61.67 56.34 -61.34 55.68 -61 55 C-63.97 55 -66.94 55 -70 55 C-69.600265 49.50364371 -68.48932961 45.4676881 -66.1171875 40.515625 C-64.3716148 36.58503472 -63.13013221 32.50224986 -61.83203125 28.40625 C-61 26 -61 26 -60 25 C-58.48071962 24.92820036 -56.95832518 24.91607993 -55.4375 24.9375 C-54.61121094 24.94652344 -53.78492187 24.95554688 -52.93359375 24.96484375 C-51.97646484 24.98224609 -51.97646484 24.98224609 -51 25 C-48.71736948 30.18218822 -46.69906319 35.41172491 -44.8125 40.75 C-44.53986328 41.50410156 -44.26722656 42.25820312 -43.98632812 43.03515625 C-42.88694294 46.13768186 -42 48.68323619 -42 52 C-41.34 52 -40.68 52 -40 52 C-40 52.99 -40 53.98 -40 55 C-47.75 55.125 -47.75 55.125 -50 54 C-50 53.01 -50 52.02 -50 51 C-53.3 51 -56.6 51 -60 51 C-60 53.31 -60 55.62 -60 58 C-50.76 58 -41.52 58 -32 58 C-32 57.01 -32 56.02 -32 55 C-32.66 55 -33.32 55 -34 55 C-34 52.69 -34 50.38 -34 48 C-33.01 48 -32.02 48 -31 48 C-31 42.39 -31 36.78 -31 31 C-31.99 31 -32.98 31 -34 31 C-34 29.02 -34 27.04 -34 25 C-29.05 25 -24.1 25 -19 25 C-19 26.98 -19 28.96 -19 31 C-20.32 31 -21.64 31 -23 31 C-23 36.94 -23 42.88 -23 49 C-21.68 49 -20.36 49 -19 49 C-19 51.31 -19 53.62 -19 56 C-22.63 56 -26.26 56 -30 56 C-30 56.66 -30 57.32 -30 58 C-20.76 58 -11.52 58 -2 58 C-2 57.34 -2 56.68 -2 56 C-2.63808594 56.01160156 -3.27617188 56.02320313 -3.93359375 56.03515625 C-4.75988281 56.04417969 -5.58617188 56.05320313 -6.4375 56.0625 C-7.26121094 56.07410156 -8.08492188 56.08570313 -8.93359375 56.09765625 C-11 56 -11 56 -12 55 C-12 52.69 -12 50.38 -12 48 C-6.06 48 -0.12 48 6 48 C6 48.33 6 48.66 6 49 C0.39 49 -5.22 49 -11 49 C-10.505 51.475 -10.505 51.475 -10 54 C-6.72946483 54.11608726 -3.4594582 54.18720711 -0.1875 54.25 C0.74126953 54.28351563 1.67003906 54.31703125 2.62695312 54.3515625 C3.51962891 54.36445313 4.41230469 54.37734375 5.33203125 54.390625 C6.15421143 54.41157227 6.9763916 54.43251953 7.82348633 54.45410156 C10.16371288 54.18216275 10.16371288 54.18216275 11.75976562 52.13671875 C13.24381115 49.5799537 13.49424615 47.6874585 13.6875 44.75 C13.75324219 43.85796875 13.81898437 42.9659375 13.88671875 42.046875 C13.92410156 41.37140625 13.96148437 40.6959375 14 40 C8.17251381 37.57188075 2.2242509 37.38272093 -4 37 C-4.38218767 35.34385343 -4.71395102 33.67542976 -5 32 C-4 31 -4 31 -0.40234375 30.90234375 C1.08596867 30.9090178 2.57426432 30.92097817 4.0625 30.9375 C4.82111328 30.94201172 5.57972656 30.94652344 6.36132812 30.95117188 C8.24091871 30.9629932 10.12046899 30.98092922 12 31 C11.505 28.03 11.505 28.03 11 25 C7.37 24.67 3.74 24.34 0 24 C0 16.08 0 8.16 0 0 Z " fill="#E4E8EA" transform="translate(74,179)"/>
<path d="M0 0 C2.55934356 2.33240436 4.17748484 4.77334642 5.8984375 7.76953125 C6.45450684 8.73052734 7.01057617 9.69152344 7.58349609 10.68164062 C8.17469238 11.71482422 8.76588867 12.74800781 9.375 13.8125 C13.11440035 20.32215551 16.85846441 26.81688956 20.8125 33.19921875 C21.41143066 34.17592529 22.01036133 35.15263184 22.62744141 36.15893555 C23.76692446 38.01143126 24.91967988 39.85584788 26.08740234 41.69067383 C31.03456153 49.80156994 31.03456153 49.80156994 30.63574219 54.73974609 C29.05721236 60.35189245 25.85844277 65.31193939 22.9375 70.3125 C22.27258614 71.48287168 21.60916341 72.65409183 20.94726562 73.82617188 C16.85459899 81.02734594 12.51608093 88.05726299 8 95 C5.71142578 94.81982422 5.71142578 94.81982422 3 94 C1.22998047 91.80126953 1.22998047 91.80126953 -0.3828125 88.8828125 C-0.98794678 87.80966797 -1.59308105 86.73652344 -2.21655273 85.63085938 C-2.84634033 84.47392578 -3.47612793 83.31699219 -4.125 82.125 C-4.78377857 80.93734055 -5.44402755 79.75049557 -6.10571289 78.56445312 C-7.10746258 76.76854127 -8.10795109 74.97206637 -9.10188293 73.17181396 C-11.12233591 69.52212893 -13.226049 65.94263055 -15.42578125 62.3984375 C-16.19414307 61.14522705 -16.19414307 61.14522705 -16.97802734 59.86669922 C-17.91941465 58.34013372 -18.87578103 56.82265659 -19.85009766 55.31689453 C-23.11303466 49.93047874 -24.36853472 45.24690595 -23 39 C-21.03770793 34.45651384 -18.54362052 30.32525078 -15.9375 26.125 C-15.28072266 25.03058594 -14.62394531 23.93617187 -13.94726562 22.80859375 C-12.6336144 20.6213321 -11.31127119 18.43926558 -9.97998047 16.26269531 C-7.37207365 11.96527648 -4.8583519 7.61747642 -2.34985352 3.26123047 C-1 1 -1 1 0 0 Z " fill="#42A0DE" transform="translate(128,20)"/>
<path d="M0 0 C1.35106087 0.0001133 1.35106087 0.0001133 2.72941589 0.00022888 C3.69825211 0.00539017 4.66708832 0.01055145 5.6652832 0.01586914 C7.15714897 0.01799156 7.15714897 0.01799156 8.67915344 0.02015686 C11.85815428 0.02575779 15.03708488 0.03831043 18.21606445 0.05102539 C20.37036031 0.05604027 22.52465727 0.0606032 24.67895508 0.06469727 C29.9621822 0.07572751 35.24536831 0.09246653 40.52856445 0.11352539 C41.71550425 4.61732665 41.09165695 6.65337195 38.77124023 10.73583984 C38.34053223 11.45860107 37.90982422 12.1813623 37.46606445 12.92602539 C37.02504395 13.69068115 36.58402344 14.45533691 36.12963867 15.24316406 C35.15003756 16.93674303 34.16364885 18.62640836 33.17163086 20.31274414 C31.3897934 23.3500754 29.63574978 26.40248067 27.8840332 29.45727539 C26.64147221 31.61406063 25.39799137 33.77031621 24.15356445 35.92602539 C23.26205688 37.47350464 23.26205688 37.47350464 22.35253906 39.05224609 C21.78414307 40.02766357 21.21574707 41.00308105 20.63012695 42.00805664 C20.12819824 42.87277588 19.62626953 43.73749512 19.10913086 44.62841797 C16.63659205 48.51596392 14.38213525 51.54447819 10.52856445 54.11352539 C8.34553528 54.35403442 8.34553528 54.35403442 5.78173828 54.34057617 C4.82096878 54.34042511 3.86019928 54.34027405 2.87031555 54.34011841 C1.835858 54.32979584 0.80140045 54.31947327 -0.2644043 54.30883789 C-1.85615227 54.30459305 -1.85615227 54.30459305 -3.48005676 54.30026245 C-6.87313052 54.28905723 -10.26594142 54.26395186 -13.65893555 54.23852539 C-15.95775986 54.22849604 -18.25658831 54.21937011 -20.55541992 54.21118164 C-26.19418166 54.1891168 -31.83278982 54.15563583 -37.47143555 54.11352539 C-36.71752584 49.8567917 -35.40158282 46.8562526 -33.2253418 43.09790039 C-32.89837311 42.52883469 -32.57140442 41.95976898 -32.23452759 41.37345886 C-31.17454709 39.53273735 -30.10459993 37.69804965 -29.03393555 35.86352539 C-28.30272561 34.60022246 -27.57201463 33.3366306 -26.84179688 32.07275391 C-25.39417154 29.57032225 -23.94216434 27.07051912 -22.48608398 24.57299805 C-20.74461181 21.58572869 -19.01616783 18.59114626 -17.29174805 15.59399414 C-16.41481719 14.07928122 -15.53727482 12.56492205 -14.65893555 11.05102539 C-14.26971924 10.37458984 -13.88050293 9.6981543 -13.47949219 9.0012207 C-9.82682717 2.76755722 -7.45241974 -0.02087513 0 0 Z " fill="#1B6291" transform="translate(43.471435546875,66.886474609375)"/>
<path d="M0 0 C1.59240509 -0.00956978 1.59240509 -0.00956978 3.21697998 -0.01933289 C4.94503876 -0.02100212 4.94503876 -0.02100212 6.70800781 -0.02270508 C7.8895343 -0.02603348 9.07106079 -0.02936188 10.28839111 -0.03279114 C12.79349375 -0.03786249 15.29860317 -0.0401994 17.80371094 -0.04003906 C21.63129899 -0.04221933 25.45859604 -0.06035599 29.28613281 -0.0793457 C31.71842349 -0.08228083 34.15071554 -0.08426483 36.58300781 -0.08520508 C37.72695007 -0.09239059 38.87089233 -0.09957611 40.04949951 -0.10697937 C50.79970657 -0.07618991 50.79970657 -0.07618991 54.91113281 2.14526367 C56.8581543 4.56860352 56.8581543 4.56860352 58.53222656 7.60620117 C59.15806641 8.71866211 59.78390625 9.83112305 60.42871094 10.97729492 C61.06926284 12.15797114 61.70923503 13.33896204 62.34863281 14.52026367 C63.61793744 16.79903575 64.88746769 19.07768217 66.15722656 21.35620117 C67.08124268 23.04374512 67.08124268 23.04374512 68.02392578 24.76538086 C70.45268086 29.1151461 73.0340226 33.36661798 75.64575195 37.60864258 C76.91113281 40.14526367 76.91113281 40.14526367 76.91113281 44.14526367 C69.19211023 44.30776775 61.47326589 44.43198993 53.75292015 44.50794888 C50.16750869 44.54441529 46.58327103 44.59383594 42.99853516 44.67333984 C39.53601258 44.74964877 36.07461548 44.79130353 32.61131668 44.80940437 C30.65345334 44.82855052 28.69604033 44.88315922 26.73886108 44.93833923 C18.08585809 44.94214921 18.08585809 44.94214921 14.8531189 42.74919128 C13.26521805 40.96463958 12.08241351 39.22336974 10.91113281 37.14526367 C10.28319824 36.1571167 9.65526367 35.16896973 9.00830078 34.15087891 C8.47865723 33.17836182 7.94901367 32.20584473 7.40332031 31.20385742 C6.8090625 30.12555664 6.21480469 29.04725586 5.60253906 27.9362793 C5.003125 26.82961914 4.40371094 25.72295898 3.78613281 24.58276367 C2.57741487 22.37191333 1.3665426 20.16223918 0.15332031 17.95385742 C-0.40677734 16.93291992 -0.966875 15.91198242 -1.54394531 14.86010742 C-2.78643292 12.67672212 -4.0699412 10.60705283 -5.50292969 8.54760742 C-7.30049715 5.8246912 -7.46538909 4.3456998 -7.08886719 1.14526367 C-4.56822049 -0.11505968 -2.82119497 0.01147974 0 0 Z " fill="#9CCDEE" transform="translate(75.0888671875,131.854736328125)"/>
<path d="M0 0 C17.41410488 -0.29294756 17.41410488 -0.29294756 22 2 C23.35298431 2.14812259 24.71129418 2.24954578 26.0703125 2.32421875 C27.29234375 2.41413086 27.29234375 2.41413086 28.5390625 2.50585938 C30.23842643 2.62522557 31.9391082 2.72732051 33.640625 2.81054688 C40.19564901 3.33967499 44.51331233 5.10797829 49 10 C51.8750779 14.10823255 54.29095563 18.41184231 56.6875 22.8125 C57.32494141 23.95009766 57.96238281 25.08769531 58.61914062 26.25976562 C59.85984237 28.47868836 61.0892849 30.7039526 62.30615234 32.93603516 C63.37065949 34.8615994 64.46589145 36.7708128 65.60400391 38.65380859 C66.07112793 39.43191895 66.53825195 40.2100293 67.01953125 41.01171875 C67.63405151 41.99918091 67.63405151 41.99918091 68.26098633 43.0065918 C69.23567757 45.63571436 68.73644681 47.34273851 68 50 C63.14365099 50.0496911 58.28745224 50.08585664 53.4309082 50.10986328 C51.78114237 50.11987851 50.13139409 50.1334946 48.48168945 50.15087891 C46.10102995 50.17532542 43.72060653 50.18652803 41.33984375 50.1953125 C40.24566383 50.21079636 40.24566383 50.21079636 39.12937927 50.22659302 C34.44845284 50.22760289 30.4376507 49.66884232 26 48 C24.14709095 45.62827641 22.86568721 43.63039374 21.5 41 C20.65859802 39.47338139 19.81607087 37.9473826 18.97265625 36.421875 C18.51133301 35.57173828 18.05000977 34.72160156 17.57470703 33.84570312 C15.78972971 30.62001387 13.93143689 27.44068674 12.05859375 24.265625 C11.02682424 22.50948661 9.99558405 20.7530381 8.96435547 18.99658203 C7.94990446 17.2710988 6.93200412 15.54764501 5.9140625 13.82421875 C5.29144531 12.75300781 4.66882813 11.68179688 4.02734375 10.578125 C3.18804321 9.14581543 3.18804321 9.14581543 2.33178711 7.68457031 C1.0368018 5.07418379 0.41467653 2.87048671 0 0 Z " fill="#133D5A" transform="translate(8,127)"/>
<path d="M0 0 C3.03393555 0.62963867 3.03393555 0.62963867 4.95263672 2.75341797 C5.48864502 3.72706299 6.02465332 4.70070801 6.5769043 5.70385742 C7.47505859 7.29423828 7.47505859 7.29423828 8.39135742 8.91674805 C9.29724609 10.59994141 9.29724609 10.59994141 10.22143555 12.31713867 C10.83696289 13.41993164 11.45249023 14.52272461 12.08666992 15.65893555 C13.2360222 17.71980014 14.37596978 19.78595785 15.50341797 21.85888672 C16.5230946 23.70484461 17.59192734 25.52449278 18.70776367 27.31396484 C20.32755245 30.14233314 20.40440104 32.0174891 20.34643555 35.25463867 C20.34256836 36.1956543 20.33870117 37.13666992 20.3347168 38.10620117 C20.03393555 40.62963867 20.03393555 40.62963867 18.03393555 43.62963867 C17.37393555 43.62963867 16.71393555 43.62963867 16.03393555 43.62963867 C15.76323242 44.33991211 15.4925293 45.05018555 15.21362305 45.78198242 C9.99525919 58.37862895 2.09553388 70.01115978 -4.96606445 81.62963867 C-7.26000977 81.56665039 -7.26000977 81.56665039 -9.96606445 80.62963867 C-11.35040126 78.24713848 -12.31203537 76.18913004 -13.26293945 73.63745117 C-13.54204163 72.9357077 -13.8211438 72.23396423 -14.10870361 71.51095581 C-14.99658077 69.26569725 -15.85636254 67.01081559 -16.71606445 64.75463867 C-17.30931838 63.24221336 -17.90435044 61.73048422 -18.5012207 60.21948242 C-25.37536598 42.73922893 -25.37536598 42.73922893 -23.30883789 36.71313477 C-20.30448679 29.99237269 -16.6555061 23.7069006 -12.90356445 17.37963867 C-12.27901367 16.31745117 -11.65446289 15.25526367 -11.01098633 14.16088867 C-9.33517391 11.31361721 -7.65433324 8.46953948 -5.96606445 5.62963867 C-5.5285083 4.6928125 -5.09095215 3.75598633 -4.64013672 2.79077148 C-2.96606445 0.62963867 -2.96606445 0.62963867 0 0 Z " fill="#71B8E7" transform="translate(165.966064453125,87.370361328125)"/>
<path d="M0 0 C1.00828354 0.00141495 2.01656708 0.0028299 3.05540466 0.00428772 C6.24399917 0.0098402 9.43252083 0.02238364 12.62109375 0.03515625 C14.79622294 0.0401774 16.97135324 0.04473923 19.14648438 0.04882812 C24.45054526 0.05979402 29.7545643 0.07648411 35.05859375 0.09765625 C34.28421093 4.9850102 32.2262616 7.85635116 29.12109375 11.59765625 C28.12027421 12.83397243 27.12029381 14.07096832 26.12109375 15.30859375 C25.61191406 15.93475586 25.10273437 16.56091797 24.578125 17.20605469 C21.38030633 21.18688679 18.33129355 25.2843033 15.25 29.35546875 C8.58273454 37.69846403 8.58273454 37.69846403 2.87593079 38.34489441 C1.69464851 38.34275688 1.69464851 38.34275688 0.48950195 38.34057617 C-0.40790207 38.3436528 -1.30530609 38.34672943 -2.22990417 38.34989929 C-3.67071098 38.33912102 -3.67071098 38.33912102 -5.140625 38.328125 C-6.13141556 38.32766678 -7.12220612 38.32720856 -8.14302063 38.32673645 C-10.23346151 38.3237189 -12.32390024 38.31584748 -14.41430664 38.3034668 C-17.62719612 38.28516599 -20.83979812 38.28295747 -24.05273438 38.28320312 C-26.08203376 38.27828952 -28.11133118 38.27246189 -30.140625 38.265625 C-31.10723557 38.26451218 -32.07384613 38.26339935 -33.06974792 38.26225281 C-33.95769547 38.25587296 -34.84564301 38.2494931 -35.76049805 38.24291992 C-36.54563278 38.23910812 -37.33076752 38.23529633 -38.13969421 38.23136902 C-39.94140625 38.09765625 -39.94140625 38.09765625 -40.94140625 37.09765625 C-41.43120937 32.71118644 -40.21810168 30.26490576 -37.984375 26.53515625 C-37.36626953 25.49101563 -36.74816406 24.446875 -36.11132812 23.37109375 C-35.45712891 22.29085937 -34.80292969 21.210625 -34.12890625 20.09765625 C-33.48630859 19.01742187 -32.84371094 17.9371875 -32.18164062 16.82421875 C-30.44513304 13.90904539 -28.6958115 11.00208086 -26.94140625 8.09765625 C-26.45969971 7.19917969 -25.97799316 6.30070312 -25.48168945 5.375 C-23.46899187 2.39918084 -21.46380337 1.41422874 -17.96669006 0.68702698 C-11.96649074 0.08952418 -6.02751404 -0.03241466 0 0 Z " fill="#2279B4" transform="translate(84.94140625,18.90234375)"/>
<path d="M0 0 C9.24 0 18.48 0 28 0 C28.1546875 6.0946875 28.1546875 6.0946875 28.3125 12.3125 C28.35802002 13.59036377 28.40354004 14.86822754 28.45043945 16.18481445 C28.46917114 17.69628052 28.46917114 17.69628052 28.48828125 19.23828125 C28.51446533 20.26993408 28.54064941 21.30158691 28.56762695 22.36450195 C28.38031006 23.23421631 28.19299316 24.10393066 28 25 C26.35070694 26.02840176 24.68375019 27.02904012 23 28 C22.23509285 30.31038412 22.23509285 30.31038412 22.3359375 32.9296875 C22.32949219 33.89003906 22.32304688 34.85039062 22.31640625 35.83984375 C22.34541016 37.34224609 22.34541016 37.34224609 22.375 38.875 C22.35566406 39.86886719 22.33632812 40.86273438 22.31640625 41.88671875 C22.32224215 47.97640355 22.32224215 47.97640355 25.5390625 53.0078125 C26.35117188 53.66523438 27.16328125 54.32265625 28 55 C28 55.99 28 56.98 28 58 C18.76 58 9.52 58 0 58 C0 57.34 0 56.68 0 56 C3.3 56 6.6 56 10 56 C10.66 54.68 11.32 53.36 12 52 C12.33 51.34 12.66 50.68 13 50 C13.22622081 48.29636178 13.40888473 46.58671299 13.5625 44.875 C13.64628906 43.96492188 13.73007813 43.05484375 13.81640625 42.1171875 C13.90728516 41.06917969 13.90728516 41.06917969 14 40 C8.17251381 37.57188075 2.2242509 37.38272093 -4 37 C-4.38218767 35.34385343 -4.71395102 33.67542976 -5 32 C-4 31 -4 31 -0.40234375 30.90234375 C1.08596867 30.9090178 2.57426432 30.92097817 4.0625 30.9375 C4.82111328 30.94201172 5.57972656 30.94652344 6.36132812 30.95117188 C8.24091871 30.9629932 10.12046899 30.98092922 12 31 C11.67 29.02 11.34 27.04 11 25 C7.37 24.67 3.74 24.34 0 24 C0 16.08 0 8.16 0 0 Z " fill="#FBFDFE" transform="translate(74,179)"/>
<path d="M0 0 C0.33 0.66 0.66 1.32 1 2 C7.81776117 1.88270629 14.63535373 1.75787045 21.45288086 1.62768555 C23.77413773 1.58426261 26.09542808 1.54259316 28.41674805 1.50268555 C31.74538278 1.4451606 35.07384785 1.38141575 38.40234375 1.31640625 C39.44712387 1.29969376 40.49190399 1.28298126 41.56834412 1.26576233 C42.52926468 1.24581711 43.49018524 1.22587189 44.48022461 1.20532227 C45.33071884 1.18977798 46.18121307 1.1742337 47.05747986 1.15821838 C49.00523798 1.21055171 49.00523798 1.21055171 50 0 C52.86267567 -0.07325168 55.700719 -0.09238205 58.5625 -0.0625 C59.36880859 -0.05798828 60.17511719 -0.05347656 61.00585938 -0.04882812 C63.00393756 -0.03700518 65.00197783 -0.01906914 67 0 C67 3.96 67 7.92 67 12 C66.01 12.33 65.02 12.66 64 13 C63.36373083 18.84458682 65.37381263 22.05610956 68.375 26.8125 C69.29219257 28.31348085 70.20884295 29.81479312 71.125 31.31640625 C71.599375 32.08484863 72.07375 32.85329102 72.5625 33.64501953 C73.99039906 35.98427129 75.3769326 38.34304738 76.75 40.71484375 C77.19037598 41.47498779 77.63075195 42.23513184 78.08447266 43.01831055 C78.9243245 44.47065366 79.76262363 45.92389613 80.59912109 47.37817383 C81.18040771 48.37433716 81.18040771 48.37433716 81.7734375 49.390625 C82.10778809 49.96844727 82.44213867 50.54626953 82.78662109 51.14160156 C84.35655901 53.54610205 86.20609948 55.75762435 88 58 C82.72 58 77.44 58 72 58 C71.64550781 56.7625 71.29101562 55.525 70.92578125 54.25 C68.84754966 48.02626251 65.54351686 42.60858943 62.1875 37 C61.28161133 35.45699219 61.28161133 35.45699219 60.35742188 33.8828125 C58.59769135 30.90509841 56.80863317 27.94822942 55 25 C54.46842285 24.12601563 53.9368457 23.25203125 53.38916016 22.3515625 C49.76486446 16.48444744 49.76486446 16.48444744 44 13 C40.78158802 12.42231747 37.57096876 12.12546256 34.3125 11.875 C32.59997864 11.72984949 30.88771924 11.58156371 29.17578125 11.4296875 C28.42208252 11.37022949 27.66838379 11.31077148 26.8918457 11.24951172 C25 11 25 11 23 10 C21.55487563 9.78217533 20.10263322 9.61026332 18.6484375 9.46484375 C17.79765625 9.37783203 16.946875 9.29082031 16.0703125 9.20117188 C15.18085938 9.11416016 14.29140625 9.02714844 13.375 8.9375 C12.4778125 8.84662109 11.580625 8.75574219 10.65625 8.66210938 C8.43782728 8.43790708 6.2191024 8.21735434 4 8 C4 7.34 4 6.68 4 6 C4.99 6 5.98 6 7 6 C7 5.01 7 4.02 7 3 C4.69 3 2.38 3 0 3 C0 2.01 0 1.02 0 0 Z " fill="#F7FAFC" transform="translate(5,119)"/>
<path d="M0 0 C9.24 0 18.48 0 28 0 C28 7.92 28 15.84 28 24 C25.69 24.66 23.38 25.32 21 26 C18.49990913 28.50009087 18.70287261 29.4212859 18.6875 32.875 C18.67074219 33.73867187 18.65398438 34.60234375 18.63671875 35.4921875 C19.09004746 38.62161798 19.63311314 39.88225912 22 42 C25.41627532 42.70272776 25.41627532 42.70272776 29.1875 42.75 C31.09595703 42.83507812 31.09595703 42.83507812 33.04296875 42.921875 C34.01878906 42.94765625 34.99460938 42.9734375 36 43 C36 44.65 36 46.3 36 48 C30.06 48 24.12 48 18 48 C18.33 50.31 18.66 52.62 19 55 C21.97 55.33 24.94 55.66 28 56 C28 56.66 28 57.32 28 58 C18.76 58 9.52 58 0 58 C0 57.34 0 56.68 0 56 C3.63 56 7.26 56 11 56 C11 53.69 11 51.38 11 49 C9.68 49 8.36 49 7 49 C7 43.06 7 37.12 7 31 C8.32 31 9.64 31 11 31 C11 28.69 11 26.38 11 24 C7.37 24 3.74 24 0 24 C0 16.08 0 8.16 0 0 Z " fill="#FBFDFE" transform="translate(44,179)"/>
<path d="M0 0 C9.24 0 18.48 0 28 0 C28 19.14 28 38.28 28 58 C18.76 58 9.52 58 0 58 C0 57.34 0 56.68 0 56 C1.04800781 56.03480469 2.09601563 56.06960937 3.17578125 56.10546875 C4.55467147 56.13360937 5.93357902 56.16090924 7.3125 56.1875 C8.00279297 56.21263672 8.69308594 56.23777344 9.40429688 56.26367188 C13.26645746 56.37429109 13.26645746 56.37429109 16.69848633 54.83740234 C18.51360475 52.27492227 18.38806868 50.43084318 18.3984375 47.30859375 C18.40230469 46.19935547 18.40617187 45.09011719 18.41015625 43.94726562 C18.39855469 42.78904297 18.38695313 41.63082031 18.375 40.4375 C18.38660156 39.27541016 18.39820312 38.11332031 18.41015625 36.91601562 C18.40435547 35.2540918 18.40435547 35.2540918 18.3984375 33.55859375 C18.39505371 32.54079834 18.39166992 31.52300293 18.38818359 30.47436523 C18.19603271 29.24955444 18.19603271 29.24955444 18 28 C17.01 27.34 16.02 26.68 15 26 C15 25.34 15 24.68 15 24 C10.05 24 5.1 24 0 24 C0 16.08 0 8.16 0 0 Z " fill="#FBFDFE" transform="translate(104,179)"/>
<path d="M0 0 C0.87462891 -0.00386719 1.74925781 -0.00773438 2.65039062 -0.01171875 C3.56111328 -0.00011719 4.47183594 0.01148438 5.41015625 0.0234375 C6.77043945 0.00603516 6.77043945 0.00603516 8.15820312 -0.01171875 C9.03412109 -0.00785156 9.91003906 -0.00398437 10.8125 0 C11.61034912 0.00338379 12.40819824 0.00676758 13.23022461 0.01025391 C16.10678978 0.50821129 17.44219386 1.30138391 19.47265625 3.3984375 C19.99023438 5.78686523 19.99023438 5.78686523 20.00390625 8.58203125 C20.0090625 9.59201172 20.01421875 10.60199219 20.01953125 11.64257812 C20.0040625 12.69638672 19.98859375 13.75019531 19.97265625 14.8359375 C19.988125 15.88587891 20.00359375 16.93582031 20.01953125 18.01757812 C20.014375 19.02884766 20.00921875 20.04011719 20.00390625 21.08203125 C19.99939453 22.00556396 19.99488281 22.92909668 19.99023438 23.88061523 C19.31021798 27.1886384 18.13924251 28.37294689 15.47265625 30.3984375 C12.33810899 31.18171583 9.19439238 31.00224181 5.97265625 30.9609375 C5.11800781 30.98478516 4.26335937 31.00863281 3.3828125 31.03320312 C-0.57293992 31.02394629 -2.82843302 30.89948309 -6.09375 28.55859375 C-8.24569073 23.81494238 -8.06830431 19.4197658 -7.96484375 14.2734375 C-7.97193359 13.27183594 -7.97902344 12.27023438 -7.98632812 11.23828125 C-7.92287295 3.96534199 -7.92287295 3.96534199 -6.28320312 1.61523438 C-4.05192136 0.06897349 -2.7023451 0.01147725 0 0 Z " fill="#1D4661" transform="translate(103.52734375,203.6015625)"/>
<path d="M0 0 C8.91 0 17.82 0 27 0 C27 8.91 27 17.82 27 27 C18.09 27 9.18 27 0 27 C0 18.09 0 9.18 0 0 Z " fill="#FCFEFF" transform="translate(164,239)"/>
<path d="M0 0 C8.91 0 17.82 0 27 0 C27 8.91 27 17.82 27 27 C18.09 27 9.18 27 0 27 C0 18.09 0 9.18 0 0 Z " fill="#FCFEFF" transform="translate(15,239)"/>
<path d="M0 0 C8.91 0 17.82 0 27 0 C27 9.24 27 18.48 27 28 C25.68 28 24.36 28 23 28 C22.67 27.01 22.34 26.02 22 25 C14.74 24.67 7.48 24.34 0 24 C0 16.08 0 8.16 0 0 Z " fill="#FBFDFE" transform="translate(134,179)"/>
<path d="M0 0 C9.24 0 18.48 0 28 0 C28 9.24 28 18.48 28 28 C20.08 28 12.16 28 4 28 C5.10617761 21.36293436 5.10617761 21.36293436 7.5625 17.5 C9.72436268 13.8285608 10.55710035 11.3453827 10 7 C6.7 7 3.4 7 0 7 C0 4.69 0 2.38 0 0 Z " fill="#F9FCFD" transform="translate(74,59)"/>
<path d="M0 0 C0 8.91 0 17.82 0 27 C-9.24 27 -18.48 27 -28 27 C-28 26.34 -28 25.68 -28 25 C-26.02 25 -24.04 25 -22 25 C-22 21.04 -22 17.08 -22 13 C-17.71 13 -13.42 13 -9 13 C-9 11.02 -9 9.04 -9 7 C-13.29 7 -17.58 7 -22 7 C-22 4.69 -22 2.38 -22 0 C-19.27119539 -0.19555932 -16.54228931 -0.38170447 -13.8125 -0.5625 C-13.04357422 -0.61857422 -12.27464844 -0.67464844 -11.48242188 -0.73242188 C-10.73154297 -0.78076172 -9.98066406 -0.82910156 -9.20703125 -0.87890625 C-8.5210083 -0.9260376 -7.83498535 -0.97316895 -7.12817383 -1.02172852 C-5 -1 -5 -1 0 0 Z " fill="#F6F9FA" transform="translate(162,210)"/>
<path d="M0 0 C1.23556641 0.01740234 1.23556641 0.01740234 2.49609375 0.03515625 C3.32238281 0.04417969 4.14867188 0.05320313 5 0.0625 C5.63808594 0.07410156 6.27617187 0.08570313 6.93359375 0.09765625 C9.21622427 5.27984447 11.23453056 10.50938116 13.12109375 15.84765625 C13.39373047 16.60175781 13.66636719 17.35585937 13.94726562 18.1328125 C15.04665081 21.23533811 15.93359375 23.78089244 15.93359375 27.09765625 C16.59359375 27.09765625 17.25359375 27.09765625 17.93359375 27.09765625 C17.93359375 28.08765625 17.93359375 29.07765625 17.93359375 30.09765625 C15.29359375 30.09765625 12.65359375 30.09765625 9.93359375 30.09765625 C9.43859375 27.62265625 9.43859375 27.62265625 8.93359375 25.09765625 C4.64359375 25.09765625 0.35359375 25.09765625 -4.06640625 25.09765625 C-4.39640625 26.74765625 -4.72640625 28.39765625 -5.06640625 30.09765625 C-7.37640625 30.09765625 -9.68640625 30.09765625 -12.06640625 30.09765625 C-11.66667125 24.60129996 -10.55573586 20.56534435 -8.18359375 15.61328125 C-6.43802105 11.68269097 -5.19653846 7.59990611 -3.8984375 3.50390625 C-2.73149537 0.12908768 -2.73149537 0.12908768 0 0 Z " fill="#214964" transform="translate(16.06640625,203.90234375)"/>
<path d="M0 0 C1.40668945 0.01450195 1.40668945 0.01450195 2.84179688 0.02929688 C3.81826172 0.05443359 4.79472656 0.07957031 5.80078125 0.10546875 C6.78884766 0.11900391 7.77691406 0.13253906 8.79492188 0.14648438 C11.23492356 0.18184672 13.67382844 0.23119842 16.11328125 0.29296875 C16.11328125 2.27296875 16.11328125 4.25296875 16.11328125 6.29296875 C8.19328125 6.78796875 8.19328125 6.78796875 0.11328125 7.29296875 C0.11328125 8.61296875 0.11328125 9.93296875 0.11328125 11.29296875 C0.90992187 11.33035156 1.7065625 11.36773437 2.52734375 11.40625 C8.43104699 11.77253816 13.08271628 12.07899669 18.11328125 15.29296875 C18.22239352 16.85388041 18.29937523 18.41705367 18.36328125 19.98046875 C18.4096875 20.85058594 18.45609375 21.72070312 18.50390625 22.6171875 C17.94955855 26.41446925 17.07382881 27.81775685 14.11328125 30.29296875 C10.69857455 30.92965419 7.38560791 30.80918616 3.92578125 30.66796875 C2.99830078 30.65378906 2.07082031 30.63960937 1.11523438 30.625 C-5.70434917 30.47533833 -5.70434917 30.47533833 -6.88671875 29.29296875 C-6.88671875 27.64296875 -6.88671875 25.99296875 -6.88671875 24.29296875 C-1.27671875 24.29296875 4.33328125 24.29296875 10.11328125 24.29296875 C10.11328125 22.31296875 10.11328125 20.33296875 10.11328125 18.29296875 C9.1490625 18.35097656 8.18484375 18.40898437 7.19140625 18.46875 C5.928125 18.51386719 4.66484375 18.55898437 3.36328125 18.60546875 C2.1103125 18.66347656 0.85734375 18.72148437 -0.43359375 18.78125 C-3.88671875 18.29296875 -3.88671875 18.29296875 -6.3125 16.09375 C-7.979597 13.12772382 -8.40139149 11.53270031 -8.32421875 8.16796875 C-8.32292969 7.31976563 -8.32164063 6.4715625 -8.3203125 5.59765625 C-7.40487224 0.7318026 -4.58554613 -0.08337357 0 0 Z " fill="#254C66" transform="translate(69.88671875,203.70703125)"/>
<path d="M0 0 C0.33 0 0.66 0 1 0 C1 1.98 1 3.96 1 6 C1.99 6 2.98 6 4 6 C4 11.61 4 17.22 4 23 C3.01 23 2.02 23 1 23 C1 25.31 1 27.62 1 30 C1.66 30 2.32 30 3 30 C3 30.99 3 31.98 3 33 C-6.24 33 -15.48 33 -25 33 C-25 30.69 -25 28.38 -25 26 C-21.7 26 -18.4 26 -15 26 C-15 26.99 -15 27.98 -15 29 C-11.7 29.33 -8.4 29.66 -5 30 C-5 29.01 -5 28.02 -5 27 C-5.66 27 -6.32 27 -7 27 C-8.15139035 23.77278785 -9.29511926 20.54291128 -10.4375 17.3125 C-10.76298828 16.40048828 -11.08847656 15.48847656 -11.42382812 14.54882812 C-11.73642578 13.66259766 -12.04902344 12.77636719 -12.37109375 11.86328125 C-12.65911865 11.05157471 -12.94714355 10.23986816 -13.24389648 9.40356445 C-14 7 -14 7 -15 2 C-10.05 2.33 -5.1 2.66 0 3 C0 2.01 0 1.02 0 0 Z " fill="#EEF2F4" transform="translate(39,204)"/>
<path d="M0 0 C9.24 0 18.48 0 28 0 C28 5.61 28 11.22 28 17 C18.76 17 9.52 17 0 17 C0 11.39 0 5.78 0 0 Z " fill="#FBFDFE" transform="translate(74,0)"/>
<path d="M0 0 C3.3 0 6.6 0 10 0 C10.01417969 1.53011719 10.02835938 3.06023437 10.04296875 4.63671875 C10.08987473 6.65367579 10.13812208 8.67060196 10.1875 10.6875 C10.19330078 11.69490234 10.19910156 12.70230469 10.20507812 13.74023438 C10.31760321 19.91171685 10.31760321 19.91171685 13.55078125 25.01953125 C14.35902344 25.67308594 15.16726562 26.32664063 16 27 C16 27.99 16 28.98 16 30 C6.76 30 -2.48 30 -12 30 C-12 29.34 -12 28.68 -12 28 C-8.7 28 -5.4 28 -2 28 C-1.34 26.68 -0.68 25.36 0 24 C0.33 23.34 0.66 22.68 1 22 C1.22622081 20.29636178 1.40888473 18.58671299 1.5625 16.875 C1.64628906 15.96492187 1.73007813 15.05484375 1.81640625 14.1171875 C1.90728516 13.06917969 1.90728516 13.06917969 2 12 C-3.82748619 9.57188075 -9.7757491 9.38272093 -16 9 C-16.38218767 7.34385343 -16.71395102 5.67542976 -17 4 C-16 3 -16 3 -12.40234375 2.90234375 C-10.91403133 2.9090178 -9.42573568 2.92097817 -7.9375 2.9375 C-7.17888672 2.94201172 -6.42027344 2.94652344 -5.63867188 2.95117188 C-3.75908129 2.9629932 -1.87953101 2.98092922 0 3 C0 2.01 0 1.02 0 0 Z " fill="#EFF3F5" transform="translate(86,207)"/>
<path d="M0 0 C0.33 0.99 0.66 1.98 1 3 C2.98 3 4.96 3 7 3 C7.03738281 3.67546875 7.07476562 4.3509375 7.11328125 5.046875 C7.21189453 6.38492188 7.21189453 6.38492188 7.3125 7.75 C7.37050781 8.63171875 7.42851563 9.5134375 7.48828125 10.421875 C8.10142594 13.51100092 8.65044212 14.88154617 11 17 C14.41627532 17.70272776 14.41627532 17.70272776 18.1875 17.75 C19.45980469 17.80671875 20.73210937 17.8634375 22.04296875 17.921875 C23.50669922 17.96054688 23.50669922 17.96054688 25 18 C25 19.65 25 21.3 25 23 C19.06 23 13.12 23 7 23 C7.33 25.31 7.66 27.62 8 30 C10.97 30.33 13.94 30.66 17 31 C17 31.66 17 32.32 17 33 C7.76 33 -1.48 33 -11 33 C-11 32.34 -11 31.68 -11 31 C-7.37 31 -3.74 31 0 31 C0 28.69 0 26.38 0 24 C-1.32 24 -2.64 24 -4 24 C-4 18.06 -4 12.12 -4 6 C-2.68 6 -1.36 6 0 6 C0 4.02 0 2.04 0 0 Z " fill="#F3F6F8" transform="translate(55,204)"/>
<path d="M0 0 C7.92 0 15.84 0 24 0 C24 1.98 24 3.96 24 6 C18.72 6 13.44 6 8 6 C8 8.31 8 10.62 8 13 C12.29 13 16.58 13 21 13 C21 14.98 21 16.96 21 19 C16.71 19 12.42 19 8 19 C8 22.63 8 26.26 8 30 C5.36 30 2.72 30 0 30 C0 20.1 0 10.2 0 0 Z " fill="#244B66" transform="translate(132,204)"/>
<path d="M0 0 C7.26 0 14.52 0 22 0 C22 9.24 22 18.48 22 28 C19.69 28 17.38 28 15 28 C12.85825473 24.33700801 10.72216801 20.67079509 8.59130859 17.00146484 C7.8653251 15.75316303 7.13779158 14.50576135 6.40869141 13.25927734 C5.36213798 11.4694574 4.32116617 9.67649488 3.28125 7.8828125 C2.33862305 6.26463623 2.33862305 6.26463623 1.37695312 4.61376953 C0 2 0 2 0 0 Z " fill="#FAFCFE" transform="translate(170,89)"/>
<path d="M0 0 C9.24 0 18.48 0 28 0 C28 5.94 28 11.88 28 18 C27.34 17.67 26.68 17.34 26 17 C26 16.34 26 15.68 26 15 C23.03 14.505 23.03 14.505 20 14 C20 13.34 20 12.68 20 12 C13.4 12 6.8 12 0 12 C0 8.04 0 4.08 0 0 Z " fill="#FAFDFE" transform="translate(104,119)"/>
<path d="M0 0 C3.96 0 7.92 0 12 0 C12 9.24 12 18.48 12 28 C8.04 28 4.08 28 0 28 C0 18.76 0 9.52 0 0 Z " fill="#FBFDFE" transform="translate(0,179)"/>
<path d="M0 0 C9.24 0 18.48 0 28 0 C28 3.96 28 7.92 28 12 C18.76 12 9.52 12 0 12 C0 8.04 0 4.08 0 0 Z " fill="#FBFDFE" transform="translate(74,119)"/>
<path d="M0 0 C3.96 0 7.92 0 12 0 C12 9.24 12 18.48 12 28 C8.04 28 4.08 28 0 28 C0 18.76 0 9.52 0 0 Z " fill="#FBFDFE" transform="translate(0,0)"/>
<path d="M0 0 C0.33 0 0.66 0 1 0 C1 10.89 1 21.78 1 33 C-8.24 33 -17.48 33 -27 33 C-27 32.34 -27 31.68 -27 31 C-25.95199219 31.03480469 -24.90398437 31.06960937 -23.82421875 31.10546875 C-22.44532853 31.13360937 -21.06642098 31.16090924 -19.6875 31.1875 C-18.99720703 31.21263672 -18.30691406 31.23777344 -17.59570312 31.26367188 C-13.7319791 31.37320731 -13.7319791 31.37320731 -10.29711914 29.83740234 C-8.48205678 27.26632022 -8.64318775 25.43624553 -8.671875 22.30859375 C-8.67703125 21.19935547 -8.6821875 20.09011719 -8.6875 18.94726562 C-8.708125 17.78904297 -8.72875 16.63082031 -8.75 15.4375 C-8.75515625 14.27541016 -8.7603125 13.11332031 -8.765625 11.91601562 C-8.54932341 6.28346899 -8.54932341 6.28346899 -10 1 C-6.7 1.33 -3.4 1.66 0 2 C0 1.34 0 0.68 0 0 Z " fill="#F0F4F6" transform="translate(131,204)"/>
<path d="M0 0 C4.95 0 9.9 0 15 0 C15 1.98 15 3.96 15 6 C13.68 6 12.36 6 11 6 C11 11.94 11 17.88 11 24 C12.32 24 13.64 24 15 24 C15 25.98 15 27.96 15 30 C10.05 30 5.1 30 0 30 C0 27.69 0 25.38 0 23 C0.99 23 1.98 23 3 23 C3 17.39 3 11.78 3 6 C2.01 6 1.02 6 0 6 C0 4.02 0 2.04 0 0 Z " fill="#254C67" transform="translate(40,204)"/>
<path d="M0 0 C3.96 0 7.92 0 12 0 C12 8.91 12 17.82 12 27 C8.04 27 4.08 27 0 27 C0 18.09 0 9.18 0 0 Z " fill="#FCFEFF" transform="translate(0,239)"/>
<path d="M0 0 C3.96 0 7.92 0 12 0 C12 8.91 12 17.82 12 27 C8.04 27 4.08 27 0 27 C0 18.09 0 9.18 0 0 Z " fill="#FCFEFF" transform="translate(0,60)"/>
<path d="M0 0 C3.96 0 7.92 0 12 0 C12 8.91 12 17.82 12 27 C8.04 27 4.08 27 0 27 C0 18.09 0 9.18 0 0 Z " fill="#FCFEFF" transform="translate(0,30)"/>
<path d="M0 0 C8.25 0 16.5 0 25 0 C25 1.98 25 3.96 25 6 C22.03 6 19.06 6 16 6 C16 13.92 16 21.84 16 30 C13.69 30 11.38 30 9 30 C9 22.08 9 14.16 9 6 C6.03 6 3.06 6 0 6 C0 4.02 0 2.04 0 0 Z " fill="#1E4661" transform="translate(162,204)"/>
<path d="M0 0 C0.495 1.485 0.495 1.485 1 3 C-15.17 3 -31.34 3 -48 3 C-48 11.58 -48 20.16 -48 29 C-43.05 29 -38.1 29 -33 29 C-33 29.33 -33 29.66 -33 30 C-38.61 30 -44.22 30 -50 30 C-50 21.75 -50 13.5 -50 5 C-59.24 5 -68.48 5 -78 5 C-78 12.92 -78 20.84 -78 29 C-74.37 29 -70.74 29 -67 29 C-67 29.33 -67 29.66 -67 30 C-72.94 30 -78.88 30 -85 30 C-85 29.67 -85 29.34 -85 29 C-83.35 29 -81.7 29 -80 29 C-80 20.75 -80 12.5 -80 4 C-82.27519531 4.02320313 -84.55039063 4.04640625 -86.89453125 4.0703125 C-89.09870852 4.08591111 -91.30287963 4.09805464 -93.50708008 4.10986328 C-95.03868361 4.11991935 -96.57026795 4.133566 -98.10180664 4.15087891 C-100.30359636 4.17514498 -102.50513219 4.18648688 -104.70703125 4.1953125 C-105.39150833 4.20563507 -106.07598541 4.21595764 -106.78120422 4.22659302 C-110.43061661 4.22745382 -111.87148502 4.08567666 -115 2 C-77.05 2 -39.1 2 0 2 C0 1.34 0 0.68 0 0 Z " fill="#D5DFE5" transform="translate(152,174)"/>
<path d="M0 0 C3.3 0 6.6 0 10 0 C10 9.24 10 18.48 10 28 C6.7 28 3.4 28 0 28 C0 18.76 0 9.52 0 0 Z " fill="#FBFDFE" transform="translate(194,209)"/>
<path d="M0 0 C3.3 0 6.6 0 10 0 C10 9.24 10 18.48 10 28 C6.7 28 3.4 28 0 28 C0 18.76 0 9.52 0 0 Z " fill="#FBFDFE" transform="translate(194,179)"/>
<path d="M0 0 C3.3 0 6.6 0 10 0 C10 9.24 10 18.48 10 28 C6.7 28 3.4 28 0 28 C0 18.76 0 9.52 0 0 Z " fill="#FBFDFE" transform="translate(194,149)"/>
<path d="M0 0 C3.3 0 6.6 0 10 0 C10 9.24 10 18.48 10 28 C6.7 28 3.4 28 0 28 C0 18.76 0 9.52 0 0 Z " fill="#FBFDFE" transform="translate(194,119)"/>
<path d="M0 0 C3.3 0 6.6 0 10 0 C10 9.24 10 18.48 10 28 C6.7 28 3.4 28 0 28 C0 18.76 0 9.52 0 0 Z " fill="#FBFDFE" transform="translate(194,89)"/>
<path d="M0 0 C3.3 0 6.6 0 10 0 C10 9.24 10 18.48 10 28 C6.7 28 3.4 28 0 28 C0 18.76 0 9.52 0 0 Z " fill="#FBFDFE" transform="translate(194,0)"/>
<path d="M0 0 C3.3 0 6.6 0 10 0 C10 8.91 10 17.82 10 27 C6.7 27 3.4 27 0 27 C0 18.09 0 9.18 0 0 Z " fill="#FCFEFF" transform="translate(194,239)"/>
<path d="M0 0 C3.3 0 6.6 0 10 0 C10 8.91 10 17.82 10 27 C6.7 27 3.4 27 0 27 C0 18.09 0 9.18 0 0 Z " fill="#FCFEFF" transform="translate(194,60)"/>
<path d="M0 0 C3.3 0 6.6 0 10 0 C10 8.91 10 17.82 10 27 C6.7 27 3.4 27 0 27 C0 18.09 0 9.18 0 0 Z " fill="#FCFEFF" transform="translate(194,30)"/>
<path d="M0 0 C4.36893935 3.71978091 6.751127 8.49776772 9.5 13.4375 C10.44388917 15.1259557 11.39170915 16.81222094 12.34375 18.49609375 C12.96540039 19.61262329 12.96540039 19.61262329 13.59960938 20.75170898 C15.19255971 23.30914965 17.11781201 25.64726502 19 28 C13.72 28 8.44 28 3 28 C0.45111866 21.37023251 -0.40137777 16.00643457 -0.1875 8.9375 C-0.17396484 8.07189453 -0.16042969 7.20628906 -0.14648438 6.31445312 C-0.1115933 4.20935826 -0.05780665 2.10459026 0 0 Z " fill="#F7FAFD" transform="translate(74,149)"/>
<path d="M0 0 C3.63 0 7.26 0 11 0 C10.65890754 6.82184917 8.98282732 11.99122832 6.15625 18.203125 C5.07253922 20.8245335 4.4483667 23.20789825 4 26 C6.97 26 9.94 26 13 26 C12.67 26.99 12.34 27.98 12 29 C8.04 29 4.08 29 0 29 C0 19.43 0 9.86 0 0 Z " fill="#F5F8FA" transform="translate(0,208)"/>
<path d="M0 0 C1.65322266 0.01740234 1.65322266 0.01740234 3.33984375 0.03515625 C4.99693359 0.04869141 4.99693359 0.04869141 6.6875 0.0625 C7.54214844 0.07410156 8.39679688 0.08570313 9.27734375 0.09765625 C9.30418687 2.91021906 9.32410563 5.72252866 9.33984375 8.53515625 C9.34822266 9.33759766 9.35660156 10.14003906 9.36523438 10.96679688 C9.37385805 13.01060846 9.32962525 15.05449527 9.27734375 17.09765625 C8.27734375 18.09765625 8.27734375 18.09765625 5.80859375 18.23046875 C4.308125 18.22660156 4.308125 18.22660156 2.77734375 18.22265625 C1.77703125 18.22523438 0.77671875 18.2278125 -0.25390625 18.23046875 C-2.72265625 18.09765625 -2.72265625 18.09765625 -3.72265625 17.09765625 C-3.82246839 14.42034245 -3.861455 11.7746145 -3.84765625 9.09765625 C-3.85152344 8.34742188 -3.85539062 7.5971875 -3.859375 6.82421875 C-3.847306 0.13799519 -3.847306 0.13799519 0 0 Z " fill="#EAEFF2" transform="translate(106.72265625,209.90234375)"/>
<path d="M0 0 C9.24 0 18.48 0 28 0 C28 2.31 28 4.62 28 7 C18.76 7 9.52 7 0 7 C0 4.69 0 2.38 0 0 Z " fill="#FAFCFD" transform="translate(44,59)"/>
<path d="M0 0 C2.64 0 5.28 0 8 0 C8 9.57 8 19.14 8 29 C5.03 29 2.06 29 -1 29 C-0.55494888 25.97365239 0.0633596 23.88595271 1.5625 21.1875 C3.28699678 17.36361583 3.75924308 14.09674914 3 10 C1.82825795 7.54910621 0.41409051 5.32640696 -1 3 C-0.67 2.01 -0.34 1.02 0 0 Z " fill="#F4F9FC" transform="translate(154,59)"/>
<path d="M0 0 C0.66 0 1.32 0 2 0 C2 5.61 2 11.22 2 17 C11.24 17 20.48 17 30 17 C30 11.39 30 5.78 30 0 C30.66 0 31.32 0 32 0 C32 5.61 32 11.22 32 17 C36.62 17 41.24 17 46 17 C46.495 17.99 46.495 17.99 47 19 C45.68394775 19.02505615 44.36789551 19.0501123 43.01196289 19.07592773 C38.09732467 19.17058684 33.18280867 19.27066124 28.26831055 19.37231445 C26.14724602 19.41544325 24.02615169 19.45713236 21.9050293 19.49731445 C18.84414717 19.55555534 15.78341206 19.61909048 12.72265625 19.68359375 C11.3158535 19.70866249 11.3158535 19.70866249 9.88063049 19.73423767 C4.83656654 19.84598942 -0.10943878 20.15250409 -5.11524963 20.79237366 C-7 21 -7 21 -10 21 C-4.5 17 -4.5 17 0 17 C0 11.39 0 5.78 0 0 Z " fill="#C3D9E6" transform="translate(72,0)"/>
<path d="M0 0 C3.96 0 7.92 0 12 0 C11.21581898 3.92090509 10.79952725 5.75574857 8.93359375 8.98828125 C8.53076172 9.69404297 8.12792969 10.39980469 7.71289062 11.12695312 C7.29201172 11.84818359 6.87113281 12.56941406 6.4375 13.3125 C6.01275391 14.05306641 5.58800781 14.79363281 5.15039062 15.55664062 C4.10648347 17.37468118 3.05407808 19.18783748 2 21 C1.34 21 0.68 21 0 21 C0 14.07 0 7.14 0 0 Z " fill="#F6F9FC" transform="translate(44,29)"/>
<path d="M0 0 C8.91 0 17.82 0 27 0 C27 1.98 27 3.96 27 6 C5.98006645 6.26910299 5.98006645 6.26910299 0 3 C0 2.01 0 1.02 0 0 Z " fill="#F5F8FA" transform="translate(15,123)"/>
<path d="M0 0 C0 5.94 0 11.88 0 18 C-3.96 18 -7.92 18 -12 18 C-11.06939278 13.34696391 -9.97106653 10.76900006 -7.625 6.75 C-7.01914063 5.69296875 -6.41328125 4.6359375 -5.7890625 3.546875 C-4.05228339 1.07442963 -3.2280321 0 0 0 Z " fill="#F3F8FA" transform="translate(72,99)"/>
<path d="M0 0 C0.33 0.66 0.66 1.32 1 2 C16.51 2 32.02 2 48 2 C48 2.33 48 2.66 48 3 C45.03 3 42.06 3 39 3 C39 5.64 39 8.28 39 11 C40.65 11 42.3 11 44 11 C44 11.33 44 11.66 44 12 C37.56744599 12.12086218 31.38226945 11.82351864 25 11 C25 10.67 25 10.34 25 10 C28.96 10 32.92 10 37 10 C37 8.02 37 6.04 37 4 C28.09 4 19.18 4 10 4 C10 4.99 10 5.98 10 7 C10.99 7.33 11.98 7.66 13 8 C10.03 8 7.06 8 4 8 C4 7.34 4 6.68 4 6 C4.99 6 5.98 6 7 6 C7 5.01 7 4.02 7 3 C4.69 3 2.38 3 0 3 C0 2.01 0 1.02 0 0 Z " fill="#B4CAD9" transform="translate(5,119)"/>
<path d="M0 0 C2.03607306 1.86334707 2.95193248 3.34017793 3.15380859 6.11132812 C3.07027135 8.66767032 2.90021581 11.20117517 2.6875 13.75 C2.62626953 14.63816406 2.56503906 15.52632812 2.50195312 16.44140625 C2.34905186 18.62907044 2.18127554 20.81453442 2 23 C-0.77770708 19.51253181 -2.98481471 15.73866136 -5.1875 11.875 C-5.55552734 11.24207031 -5.92355469 10.60914063 -6.30273438 9.95703125 C-9 5.24307166 -9 5.24307166 -9 3 C-6.03 3 -3.06 3 0 3 C0 2.01 0 1.02 0 0 Z " fill="#DFE4E7" transform="translate(72,144)"/>
<path d="M0 0 C2.8813191 2.8813191 4.63008005 5.44808127 6.6875 8.9375 C7.31011719 9.97777344 7.93273437 11.01804687 8.57421875 12.08984375 C10 15 10 15 10 19 C6.7 19 3.4 19 0 19 C0 12.73 0 6.46 0 0 Z " fill="#F3F9FD" transform="translate(104,68)"/>
<path d="M0 0 C4.29 0 8.58 0 13 0 C12.67 1.32 12.34 2.64 12 4 C12 3.01 12 2.02 12 1 C8.7 1 5.4 1 2 1 C2 3.31 2 5.62 2 8 C11.24 8 20.48 8 30 8 C30 8.33 30 8.66 30 9 C25.62515941 9.17102725 21.25010879 9.33598883 16.875 9.5 C15.65683594 9.54769531 14.43867188 9.59539062 13.18359375 9.64453125 C4.78185664 9.9557067 -3.59303609 10.05819087 -12 10 C-12 9.34 -12 8.68 -12 8 C-11.14535156 7.95101562 -10.29070313 7.90203125 -9.41015625 7.8515625 C-8.30542969 7.77679688 -7.20070313 7.70203125 -6.0625 7.625 C-4.40927734 7.52058594 -4.40927734 7.52058594 -2.72265625 7.4140625 C-1.37494141 7.20910156 -1.37494141 7.20910156 0 7 C0.33 6.34 0.66 5.68 1 5 C0.34 5 -0.32 5 -1 5 C-0.67 3.35 -0.34 1.7 0 0 Z " fill="#E8EAEC" transform="translate(12,229)"/>
<path d="M0 0 C2.64 0 5.28 0 8 0 C7.34215037 3.29680965 6.10579427 5.84117922 4.4375 8.75 C3.98246094 9.54921875 3.52742188 10.3484375 3.05859375 11.171875 C2.70925781 11.77515625 2.35992188 12.3784375 2 13 C1.34 13 0.68 13 0 13 C0 8.71 0 4.42 0 0 Z " fill="#F4F7FA" transform="translate(14,89)"/>
<path d="M0 0 C0.33 0 0.66 0 1 0 C1.33 8.91 1.66 17.82 2 27 C5.3 27.33 8.6 27.66 12 28 C12 28.66 12 29.32 12 30 C3.585 30.495 3.585 30.495 -5 31 C-5 29.02 -5 27.04 -5 25 C-4.67 25.99 -4.34 26.98 -4 28 C-2.68 28 -1.36 28 0 28 C0 18.76 0 9.52 0 0 Z " fill="#E2E6E7" transform="translate(192,179)"/>
<path d="M0 0 C2.97 0 5.94 0 9 0 C9.33 1.65 9.66 3.3 10 5 C12.64 5 15.28 5 18 5 C18 5.33 18 5.66 18 6 C12.06 6 6.12 6 0 6 C0 4.02 0 2.04 0 0 Z " fill="#FBFDFE" transform="translate(15,230)"/>
<path d="M0 0 C2.31 0 4.62 0 7 0 C7 3.96 7 7.92 7 12 C6.34 12 5.68 12 5 12 C4.15885829 10.56705502 3.32734313 9.12845595 2.5 7.6875 C1.80390625 6.48673828 1.80390625 6.48673828 1.09375 5.26171875 C0 3 0 3 0 0 Z " fill="#F5F8FA" transform="translate(65,149)"/>
<path d="M0 0 C0 3.3 0 6.6 0 10 C-2.97 10 -5.94 10 -9 10 C-7.9622091 5.84883641 -7.61045927 5.27406121 -4.5 2.75 C-3.8709375 2.22921875 -3.241875 1.7084375 -2.59375 1.171875 C-1 0 -1 0 0 0 Z " fill="#F2F7FA" transform="translate(102,48)"/>
<path d="M0 0 C0.66 0 1.32 0 2 0 C2 9.24 2 18.48 2 28 C-1 25 -1 25 -1.2487793 22.36450195 C-1.19117432 21.33284912 -1.13356934 20.30119629 -1.07421875 19.23828125 C-1.01943359 18.12001953 -0.96464844 17.00175781 -0.90820312 15.84960938 C-0.83537109 14.68236328 -0.76253906 13.51511719 -0.6875 12.3125 C-0.62626953 11.13365234 -0.56503906 9.95480469 -0.50195312 8.74023438 C-0.34856044 5.82577331 -0.18069004 2.91287541 0 0 Z " fill="#E7EBED" transform="translate(132,0)"/>
<path d="M0 0 C3.3 0 6.6 0 10 0 C10 1.32 10 2.64 10 4 C6.7 4 3.4 4 0 4 C0 2.68 0 1.36 0 0 Z " fill="#F2F4F5" transform="translate(194,266)"/>
<path d="M0 0 C2.73693289 3.64924385 4.91061451 6.97047084 7 11 C6.67 11.66 6.34 12.32 6 13 C3.03 12.505 3.03 12.505 0 12 C0 8.04 0 4.08 0 0 Z " fill="#D4DBDF" transform="translate(12,137)"/>
<path d="M0 0 C2.52259061 1.97420135 2.9929808 2.96745642 3.6875 6.1875 C3.790625 7.115625 3.89375 8.04375 4 9 C2.02 9 0.04 9 -2 9 C-1.125 1.125 -1.125 1.125 0 0 Z " fill="#CCD6DD" transform="translate(18,214)"/>
<path d="M0 0 C0.66 0 1.32 0 2 0 C2 2.64 2 5.28 2 8 C3.65 8 5.3 8 7 8 C7 8.33 7 8.66 7 9 C0.56744599 9.12086218 -5.61773055 8.82351864 -12 8 C-12 7.67 -12 7.34 -12 7 C-8.04 7 -4.08 7 0 7 C0 4.69 0 2.38 0 0 Z " fill="#BDC9D0" transform="translate(42,122)"/>
<path d="M0 0 C3.96 0 7.92 0 12 0 C12 0.99 12 1.98 12 3 C8.04 3 4.08 3 0 3 C0 2.01 0 1.02 0 0 Z " fill="#EFF1F2" transform="translate(0,266)"/>
<path d="M0 0 C0.33 0.66 0.66 1.32 1 2 C3.52733235 2.65555119 3.52733235 2.65555119 6 3 C5.34 4.65 4.68 6.3 4 8 C3.67 7.01 3.34 6.02 3 5 C1.35 5 -0.3 5 -2 5 C-2.66 6.32 -3.32 7.64 -4 9 C-4.99 9 -5.98 9 -7 9 C-4.69 6.03 -2.38 3.06 0 0 Z " fill="#D2E3ED" transform="translate(118,24)"/>
<path d="M0 0 C8.91 0 17.82 0 27 0 C27 0.33 27 0.66 27 1 C26.25838623 1.02505615 25.51677246 1.0501123 24.75268555 1.07592773 C21.39744672 1.19186132 18.04249056 1.31459985 14.6875 1.4375 C12.93663086 1.49647461 12.93663086 1.49647461 11.15039062 1.55664062 C10.03212891 1.59853516 8.91386719 1.64042969 7.76171875 1.68359375 C6.2142395 1.73858032 6.2142395 1.73858032 4.63549805 1.79467773 C1.89251742 1.90161242 1.89251742 1.90161242 -1 3 C-0.67 2.01 -0.34 1.02 0 0 Z " fill="#F3F6F8" transform="translate(75,89)"/>
<path d="M0 0 C2 3 2 3 2 6 C-1.3 6.33 -4.6 6.66 -8 7 C-8.33 6.01 -8.66 5.02 -9 4 C-6.03 4 -3.06 4 0 4 C0 2.68 0 1.36 0 0 Z " fill="#E0E8EE" transform="translate(146,143)"/>
<path d="M0 0 C0.66 0.66 1.32 1.32 2 2 C4.73434962 2.3063859 7.38279821 2.5113336 10.125 2.625 C10.87910156 2.66367188 11.63320312 2.70234375 12.41015625 2.7421875 C14.27303184 2.83651031 16.13648255 2.91934662 18 3 C18 3.33 18 3.66 18 4 C11.4 4 4.8 4 -2 4 C-1.34 2.68 -0.68 1.36 0 0 Z " fill="#DEE4E8" transform="translate(77,85)"/>
<path d="M0 0 C4.29 0 8.58 0 13 0 C12.67 1.32 12.34 2.64 12 4 C12 3.01 12 2.02 12 1 C8.7 1 5.4 1 2 1 C2 1.99 2 2.98 2 4 C1.01 4 0.02 4 -1 4 C-0.67 2.68 -0.34 1.36 0 0 Z " fill="#C2CDD4" transform="translate(12,229)"/>
<path d="M0 0 C1.98 0 3.96 0 6 0 C6 1.32 6 2.64 6 4 C4.02 4 2.04 4 0 4 C0 2.68 0 1.36 0 0 Z " fill="#FAFCFD" transform="translate(74,223)"/>
</svg>
