<svg data-name="Layer 2-5" xmlns="http://www.w3.org/2000/svg" width="125.284" height="118"><path data-name="Path 9972" d="M121.329 44.723c-2.36-9.644-16.957-12.674-23.374-19.39-6.622-6.91-9.164-21.51-18.349-24.204-8.908-2.586-18.858 8.172-28.524 10.525S27.606 9.01 20.905 15.412c-6.92 6.607-2.44 20.745-5.1 29.915-2.651 8.886-14.2 18.3-11.851 27.948S20.912 85.95 27.329 92.666c6.621 6.905 9.163 21.51 18.348 24.2 8.908 2.586 18.858-8.173 28.531-10.525s23.469 2.644 30.17-3.759c6.92-6.607 2.44-20.745 5.1-29.915 2.651-8.882 14.203-18.3 11.851-27.944z" fill="#e6e6e6"/><path data-name="Path 9973" d="M124.556 118H.728a.729.729 0 010-1.457h123.828a.729.729 0 010 1.457z" fill="#a09cad"/><path data-name="Path 9974" d="M77.939 107.07H47.346v10.2h30.593z" fill="#ff3da2"/><path data-name="Path 9975" d="M77.938 118H47.345a.729.729 0 01-.728-.728v-10.2a.729.729 0 01.728-.728h30.593a.729.729 0 01.728.728v10.2a.729.729 0 01-.728.728zm-29.864-1.458H77.21v-8.741H48.074z"/><path data-name="Path 9976" d="M15.296 96.873h94.691v6.556a3.641 3.641 0 01-3.642 3.642H18.938a3.641 3.641 0 01-3.642-3.638z" fill="#ff3da2"/><path data-name="Path 9977" d="M109.987 103.433l-94.691-3.642v-2.918h94.691z" fill="#ff91bb"/><path data-name="Path 9978" d="M106.346 107.802H93.235a.729.729 0 010-1.457h13.111a2.913 2.913 0 002.914-2.914v-5.827H16.025v5.827a2.913 2.913 0 002.913 2.913h69.93a.729.729 0 010 1.457h-69.93a4.37 4.37 0 01-4.37-4.37v-6.556a.729.729 0 01.728-.728h94.692a.729.729 0 01.728.728v6.556a4.37 4.37 0 01-4.37 4.37z"/><path data-name="Path 9979" d="M18.938 42.971h87.407a3.641 3.641 0 013.642 3.642v50.259H15.296V46.617a3.642 3.642 0 013.642-3.646z" fill="#b8b5c6"/><path data-name="Path 9980" d="M103.432 96.876H82.309V42.971h14.568z" fill="#a09cad"/><path data-name="Path 9981" d="M15.296 83.037a.729.729 0 01-.728-.728V46.617a4.37 4.37 0 014.37-4.374h87.407a4.37 4.37 0 014.37 4.37v11.659a.729.729 0 01-1.457 0V46.617a2.914 2.914 0 00-2.914-2.914H18.938a2.914 2.914 0 00-2.914 2.914v35.692a.729.729 0 01-.728.728z"/><path data-name="Path 9982" d="M109.988 97.61H15.296a.729.729 0 01-.728-.728v-10.2a.729.729 0 011.457 0v9.469h93.235V62.642a.729.729 0 011.457 0v34.235a.729.729 0 01-.728.728z"/><path data-name="Path 9983" d="M91.049 118H34.234a.729.729 0 010-1.457h56.815a.729.729 0 010 1.457z"/><path data-name="Path 9984" d="M67.015 103.433h-8.743a1.457 1.457 0 010-2.914h8.743a1.457 1.457 0 010 2.914z" fill="#fff"/><path data-name="Path 9985" d="M96.148 32.774H29.136v64.1h67.012z" fill="#ededed"/><path data-name="Path 9986" d="M89.593 91.774l-60.457 2.189V32.774h64.1z" fill="#fff"/><path data-name="Path 9987" d="M96.148 97.605H29.135a.729.729 0 01-.728-.728v-64.1a.728.728 0 01.728-.732h67.012a.729.729 0 01.728.728v64.1a.729.729 0 01-.728.728zm-66.284-1.46H95.42V33.506H29.864z"/><path data-name="Path 9988" d="M96.148 22.576H29.136v10.2h67.012z" fill="#7fb9ff"/><path data-name="Path 9989" d="M96.148 30.592l-67.012-5.098v-2.918h67.012z" fill="#afd3ff"/><path data-name="Path 9990" d="M96.148 33.506H29.135a.728.728 0 01-.728-.728v-10.2a.728.728 0 01.728-.73h67.012a.729.729 0 01.728.728v10.2a.729.729 0 01-.728.728zm-66.284-1.458H95.42v-8.739H29.864z"/><path data-name="Path 9991" d="M34.235 28.771a1.093 1.093 0 10-1.093-1.089 1.093 1.093 0 001.093 1.089z" fill="#fff"/><path data-name="Path 9992" d="M38.605 28.771a1.093 1.093 0 10-1.093-1.089 1.093 1.093 0 001.093 1.089z" fill="#fff"/><path data-name="Path 9993" d="M42.976 28.771a1.093 1.093 0 10-1.093-1.089 1.093 1.093 0 001.093 1.089z" fill="#fff"/><path data-name="Path 9994" d="M36.419 5.099h-7.284a.729.729 0 010-1.457h7.284a.729.729 0 010 1.457z" fill="#a09cad"/><path data-name="Path 9995" d="M32.777 8.741a.728.728 0 01-.728-.729V.728a.729.729 0 011.457 0v7.284a.728.728 0 01-.728.728z" fill="#a09cad"/><path data-name="Path 9996" d="M101.975 11.654h-7.284a.729.729 0 010-1.457h7.284a.729.729 0 010 1.457z" fill="#a09cad"/><path data-name="Path 9997" d="M98.333 15.296a.729.729 0 01-.728-.728V7.283a.729.729 0 011.457 0v7.284a.729.729 0 01-.728.728z" fill="#a09cad"/><path data-name="Path 9998" d="M11.655 91.05H5.827a.729.729 0 010-1.457h5.827a.729.729 0 010 1.457z" fill="#a09cad"/><path data-name="Path 9999" d="M8.74 93.963a.729.729 0 01-.728-.728v-5.827a.729.729 0 011.457 0v5.827a.729.729 0 01-.728.728z" fill="#a09cad"/><path data-name="Path 10000" d="M65.556 15.296h-5.828a.729.729 0 010-1.457h5.827a.729.729 0 010 1.457z" fill="#a09cad"/><path data-name="Path 10001" d="M62.642 18.21a.728.728 0 01-.728-.728v-5.828a.729.729 0 011.457 0v5.828a.728.728 0 01-.728.728z" fill="#a09cad"/><path data-name="Path 10002" d="M8.012 40.062H.728a.73.73 0 010-1.461h7.284a.729.729 0 010 1.457z" fill="#a09cad"/><path data-name="Path 10003" d="M4.37 43.704a.728.728 0 01-.728-.729v-7.284a.729.729 0 011.457 0v7.284a.728.728 0 01-.728.728z" fill="#a09cad"/><path data-name="Path 10004" d="M124.556 63.371h-5.827a.729.729 0 010-1.457h5.827a.729.729 0 010 1.457z" fill="#a09cad"/><path data-name="Path 10005" d="M121.642 66.284a.729.729 0 01-.728-.728v-5.828a.729.729 0 011.457 0v5.828a.729.729 0 01-.728.728z" fill="#a09cad"/><path data-name="Path 10006" d="M119.457 99.79h-5.827a.729.729 0 010-1.457h5.827a.729.729 0 010 1.457z" fill="#a09cad"/><path data-name="Path 10007" d="M116.543 102.704a.729.729 0 01-.728-.728v-5.827a.729.729 0 011.457 0v5.827a.729.729 0 01-.728.728z" fill="#a09cad"/><path data-name="Path 10008" d="M65.555 40.426H43.704a1.093 1.093 0 110-2.185h21.851a1.093 1.093 0 110 2.185z" fill="#ff3da2"/><path data-name="Path 10009" d="M67.012 63.734H50.988a1.093 1.093 0 110-2.185h16.024a1.093 1.093 0 110 2.185z" fill="#ff3da2"/><path data-name="Path 10010" d="M50.988 57.907h-7.284a1.093 1.093 0 110-2.185h7.284a1.093 1.093 0 110 2.185z" fill="#ff3da2"/><path data-name="Path 10011" d="M54.63 75.389H43.704a1.093 1.093 0 110-2.185H54.63a1.093 1.093 0 110 2.185z" fill="#ff3da2"/><path data-name="Path 10012" d="M50.988 81.216h-7.284a1.093 1.093 0 110-2.185h7.284a1.093 1.093 0 110 2.185z" fill="#ff3da2"/><path data-name="Path 10013" d="M75.753 46.253H50.988a1.093 1.093 0 110-2.185h24.765a1.093 1.093 0 110 2.185z" fill="#7fb9ff"/><path data-name="Path 10014" d="M62.642 69.561H50.988a1.093 1.093 0 110-2.185h11.654a1.093 1.093 0 110 2.185z" fill="#7fb9ff"/><path data-name="Path 10015" d="M71.383 87.043h-20.4a1.093 1.093 0 110-2.185h20.4a1.093 1.093 0 110 2.185z" fill="#7fb9ff"/><path data-name="Path 10016" d="M58.995 92.87h-8.007a1.093 1.093 0 110-2.185h8.007a1.093 1.093 0 110 2.185z" fill="#ff3da2"/><path data-name="Path 10017" d="M75.025 75.389h-15.3a1.093 1.093 0 110-2.185h15.3a1.093 1.093 0 110 2.185z" fill="#7fb9ff"/><path data-name="Path 10018" d="M64.827 81.216h-8.74a1.093 1.093 0 110-2.185h8.741a1.093 1.093 0 110 2.185z" fill="#7fb9ff"/><path data-name="Path 10019" d="M75.753 92.87H64.099a1.093 1.093 0 110-2.185h11.654a1.093 1.093 0 110 2.185z" fill="#7fb9ff"/><path data-name="Path 10020" d="M61.185 52.08h-10.2a1.093 1.093 0 110-2.185h10.2a1.093 1.093 0 110 2.185z" fill="#7fb9ff"/><path data-name="Path 10021" d="M80.119 63.734h-8.007a1.093 1.093 0 110-2.185h8.007a1.093 1.093 0 110 2.185z" fill="#7fb9ff"/><path data-name="Path 10022" d="M89.592 46.253h-8.741a1.093 1.093 0 110-2.185h8.741a1.093 1.093 0 110 2.185z" fill="#b8b5c6"/><path data-name="Path 10023" d="M73.568 52.08h-7.284a1.093 1.093 0 110-2.185h7.284a1.093 1.093 0 110 2.185z" fill="#b8b5c6"/><path data-name="Path 10024" d="M75.025 69.561h-7.284a1.093 1.093 0 110-2.185h7.284a1.093 1.093 0 110 2.185z" fill="#b8b5c6"/><path data-name="Path 10025" d="M83.766 87.043h-7.284a1.093 1.093 0 110-2.185h7.284a1.093 1.093 0 110 2.185z" fill="#b8b5c6"/><path data-name="Path 10026" d="M89.592 92.87h-8.741a1.093 1.093 0 110-2.185h8.741a1.093 1.093 0 110 2.185z" fill="#b8b5c6"/><path data-name="Path 10027" d="M86.679 81.216H69.926a1.093 1.093 0 110-2.185h16.753a1.093 1.093 0 110 2.185z" fill="#b8b5c6"/><path data-name="Path 10028" d="M38.605 40.426h-2.913a1.093 1.093 0 110-2.185h2.914a1.093 1.093 0 110 2.185z" fill="#7fb9ff"/><path data-name="Path 10029" d="M38.605 46.253h-2.913a1.093 1.093 0 110-2.185h2.914a1.093 1.093 0 110 2.185z" fill="#7fb9ff"/><path data-name="Path 10030" d="M38.605 52.08h-2.913a1.093 1.093 0 110-2.185h2.914a1.093 1.093 0 110 2.185z" fill="#7fb9ff"/><path data-name="Path 10031" d="M38.605 57.907h-2.913a1.093 1.093 0 110-2.185h2.914a1.093 1.093 0 110 2.185z" fill="#7fb9ff"/><path data-name="Path 10032" d="M38.605 63.734h-2.913a1.093 1.093 0 110-2.185h2.914a1.093 1.093 0 110 2.185z" fill="#7fb9ff"/><path data-name="Path 10033" d="M38.605 69.561h-2.913a1.093 1.093 0 110-2.185h2.914a1.093 1.093 0 110 2.185z" fill="#7fb9ff"/><path data-name="Path 10034" d="M38.605 75.389h-2.913a1.093 1.093 0 110-2.185h2.914a1.093 1.093 0 110 2.185z" fill="#7fb9ff"/><path data-name="Path 10035" d="M38.605 81.216h-2.913a1.093 1.093 0 110-2.185h2.914a1.093 1.093 0 110 2.185z" fill="#7fb9ff"/><path data-name="Path 10036" d="M38.605 87.043h-2.913a1.093 1.093 0 110-2.185h2.914a1.093 1.093 0 110 2.185z" fill="#7fb9ff"/><path data-name="Path 10037" d="M38.605 92.87h-2.913a1.093 1.093 0 110-2.185h2.914a1.093 1.093 0 110 2.185z" fill="#7fb9ff"/></svg>