<svg data-name="Asset 31" xmlns="http://www.w3.org/2000/svg" width="123.315" height="116.146"><path data-name="Path 9503" d="M108.166 65.601c1.434-8.79 11.392-19.143 7.994-28.069S98.415 27.409 91.475 21.759C84.306 15.945 80.149 2.309 71.028.817 62.195-.617 53.943 10.855 44.967 14.226s-22.792.237-28.448 7.169c-5.843 7.126.122 20.075-1.369 29.158-1.449 8.782-11.393 19.134-7.981 28.06s17.745 10.124 24.68 15.773c7.169 5.807 11.328 19.444 20.447 20.935 8.833 1.434 17.085-10.037 26.061-13.407s22.792-.237 28.448-7.169c5.834-7.112-.131-20.075 1.361-29.144z" fill="#e6e6e6"/><path data-name="Path 9504" d="M122.6 116.146H.717a.717.717 0 010-1.434H122.6a.717.717 0 010 1.434z" fill="#a09cad"/><path data-name="Path 9505" d="M81.015 105.391H52.337v10.037h28.678z" fill="#7fb9ff"/><path data-name="Path 9506" d="M81.015 116.145H52.337a.717.717 0 01-.717-.717v-10.037a.717.717 0 01.717-.717h28.678a.717.717 0 01.717.717v10.037a.717.717 0 01-.717.717zm-27.961-1.434h27.244v-8.6H53.054z"/><path data-name="Path 9507" d="M25.093 95.354h83.166v6.453a3.584 3.584 0 01-3.585 3.585h-76a3.584 3.584 0 01-3.581-3.585z" fill="#7fb9ff"/><path data-name="Path 9508" d="M108.259 101.807l-83.166-3.585v-2.868h83.166z" fill="#afd3ff"/><path data-name="Path 9509" d="M104.676 106.108H91.769a.717.717 0 010-1.434h12.907a2.869 2.869 0 002.868-2.868V96.07H25.81v5.736a2.868 2.868 0 002.868 2.868h58.79a.717.717 0 010 1.434H28.676a4.3 4.3 0 01-4.3-4.3v-6.453a.717.717 0 01.717-.717h83.166a.717.717 0 01.717.717v6.453a4.3 4.3 0 01-4.3 4.3z"/><path data-name="Path 9510" d="M28.678 32.263h76a3.584 3.584 0 013.585 3.585v59.507h-83.17V35.848a3.585 3.585 0 013.585-3.585z" fill="#a09cad"/><path data-name="Path 9511" d="M99.125 88.257l-74.032 2.796V35.848a3.585 3.585 0 013.585-3.585h75.28l-2.765 53.958a2.151 2.151 0 01-2.065 2.036z" fill="#b8b5c6"/><path data-name="Path 9512" d="M25.093 81.732a.717.717 0 01-.717-.717V35.846a4.3 4.3 0 014.3-4.3H98.22a.717.717 0 010 1.434H28.676a2.868 2.868 0 00-2.866 2.866v45.169a.717.717 0 01-.717.717z"/><path data-name="Path 9513" d="M108.26 70.978a.717.717 0 01-.717-.717V35.846a2.868 2.868 0 00-2.868-2.868h-2.151a.717.717 0 010-1.434h2.151a4.3 4.3 0 014.3 4.3v34.417a.717.717 0 01-.717.717z"/><path data-name="Path 9514" d="M108.259 96.071H25.093a.717.717 0 01-.717-.717V85.317a.717.717 0 011.434 0v9.32h81.732V74.563a.717.717 0 011.434 0v20.792a.717.717 0 01-.717.717z"/><path data-name="Path 9515" d="M94.637 116.146H38.715a.717.717 0 010-1.434h55.922a.717.717 0 010 1.434z"/><path data-name="Path 9516" d="M70.978 101.807h-8.6a1.434 1.434 0 010-2.868h8.6a1.434 1.434 0 010 2.868z" fill="#fff"/><path data-name="Path 9517" d="M98.222 32.263H15.056v53.054h83.166z" fill="#ededed"/><path data-name="Path 9518" d="M91.189 79.632l-76.133 2.817V32.263h80.3l-2.791 46.021a1.434 1.434 0 01-1.377 1.348z" fill="#fff"/><path data-name="Path 9519" d="M98.222 86.034H15.056a.717.717 0 01-.717-.717V53.054a.717.717 0 011.434 0V84.6h81.732V32.98H15.773v15.773a.717.717 0 01-1.434 0v-16.49a.717.717 0 01.717-.717h83.166a.717.717 0 01.717.717v53.054a.717.717 0 01-.717.717z"/><path data-name="Path 9520" d="M98.222 22.225H15.056v10.037h83.166z" fill="#afd3ff"/><path data-name="Path 9521" d="M98.222 32.263H15.056V25.81l83.166 2.868z" fill="#7fb9ff"/><path data-name="Path 9522" d="M98.222 32.979H15.056a.717.717 0 01-.717-.717V22.225a.717.717 0 01.717-.717h24.376a.717.717 0 010 1.434H15.773v8.6h81.732v-8.6H43.734a.717.717 0 010-1.434h54.488a.717.717 0 01.717.717v10.037a.717.717 0 01-.717.717z"/><path data-name="Path 9523" d="M21.509 28.678a1.434 1.434 0 10-1.434-1.434 1.434 1.434 0 001.434 1.434z" fill="#fff"/><path data-name="Path 9524" d="M27.244 28.678a1.434 1.434 0 10-1.434-1.434 1.434 1.434 0 001.434 1.434z" fill="#fff"/><path data-name="Path 9525" d="M32.98 28.678a1.434 1.434 0 10-1.434-1.434 1.434 1.434 0 001.434 1.434z" fill="#fff"/><path data-name="Path 9526" d="M34.053 39.791h-2.149a2.151 2.151 0 00-2.151 2.151v2.149a2.151 2.151 0 002.151 2.151h2.149a2.151 2.151 0 002.153-2.151v-2.149a2.151 2.151 0 00-2.153-2.151z" fill="#b8b5c6"/><path data-name="Path 9527" d="M34.055 46.96h-2.151a2.868 2.868 0 01-2.868-2.867v-2.151a2.868 2.868 0 012.868-2.868h2.151a2.868 2.868 0 012.868 2.868v2.151a2.868 2.868 0 01-2.868 2.868zm-2.151-6.453a1.434 1.434 0 00-1.434 1.434v2.151a1.434 1.434 0 001.434 1.434h2.151a1.434 1.434 0 001.434-1.434v-2.15a1.434 1.434 0 00-1.434-1.434z" fill="#b8b5c6"/><path data-name="Path 9528" d="M34.053 51.262h-2.149a2.151 2.151 0 00-2.151 2.151v2.149a2.151 2.151 0 002.151 2.151h2.149a2.151 2.151 0 002.153-2.151v-2.149a2.151 2.151 0 00-2.153-2.151z" fill="#b8b5c6"/><path data-name="Path 9529" d="M34.055 58.431h-2.151a2.868 2.868 0 01-2.868-2.867v-2.151a2.868 2.868 0 012.868-2.868h2.151a2.868 2.868 0 012.868 2.868v2.151a2.868 2.868 0 01-2.868 2.868zm-2.151-6.453a1.434 1.434 0 00-1.434 1.434v2.151a1.434 1.434 0 001.434 1.434h2.151a1.434 1.434 0 001.434-1.434v-2.15a1.434 1.434 0 00-1.434-1.434z" fill="#b8b5c6"/><path data-name="Path 9530" d="M34.053 62.733h-2.149a2.151 2.151 0 00-2.151 2.151v2.149a2.151 2.151 0 002.151 2.151h2.149a2.151 2.151 0 002.153-2.151v-2.149a2.151 2.151 0 00-2.153-2.151z" fill="#b8b5c6"/><path data-name="Path 9531" d="M34.055 69.902h-2.151a2.868 2.868 0 01-2.868-2.867v-2.151a2.868 2.868 0 012.868-2.868h2.151a2.868 2.868 0 012.868 2.868v2.151a2.868 2.868 0 01-2.868 2.868zm-2.151-6.453a1.434 1.434 0 00-1.434 1.434v2.151a1.434 1.434 0 001.434 1.434h2.151a1.434 1.434 0 001.434-1.434v-2.15a1.434 1.434 0 00-1.434-1.434z" fill="#b8b5c6"/><path data-name="Path 9532" d="M34.053 74.204h-2.149a2.151 2.151 0 00-2.151 2.151v2.149a2.151 2.151 0 002.151 2.151h2.149a2.151 2.151 0 002.151-2.151v-2.151a2.151 2.151 0 00-2.151-2.149z" fill="#b8b5c6"/><path data-name="Path 9533" d="M34.055 81.373h-2.151a2.868 2.868 0 01-2.868-2.868v-2.151a2.868 2.868 0 012.868-2.868h2.151a2.868 2.868 0 012.868 2.868v2.151a2.868 2.868 0 01-2.868 2.868zm-2.151-6.453a1.434 1.434 0 00-1.434 1.434v2.151a1.434 1.434 0 001.434 1.434h2.151a1.434 1.434 0 001.434-1.434v-2.151a1.434 1.434 0 00-1.434-1.434z" fill="#b8b5c6"/><path data-name="Path 9534" d="M84.24 39.791h-2.151a2.151 2.151 0 00-2.151 2.151v2.149a2.151 2.151 0 002.151 2.151h2.151a2.151 2.151 0 002.151-2.151v-2.149a2.151 2.151 0 00-2.151-2.151z" fill="#b8b5c6"/><path data-name="Path 9535" d="M84.242 46.96h-2.151a2.868 2.868 0 01-2.868-2.868v-2.15a2.868 2.868 0 012.868-2.868h2.151a2.868 2.868 0 012.868 2.868v2.151a2.868 2.868 0 01-2.868 2.868zm-2.151-6.453a1.434 1.434 0 00-1.434 1.434v2.151a1.434 1.434 0 001.434 1.434h2.151a1.434 1.434 0 001.434-1.434v-2.15a1.434 1.434 0 00-1.434-1.434z" fill="#b8b5c6"/><path data-name="Path 9536" d="M84.24 51.262h-2.151a2.151 2.151 0 00-2.151 2.151v2.149a2.151 2.151 0 002.151 2.151h2.151a2.151 2.151 0 002.151-2.151v-2.149a2.151 2.151 0 00-2.151-2.151z" fill="#b8b5c6"/><path data-name="Path 9537" d="M84.242 58.431h-2.151a2.868 2.868 0 01-2.868-2.868v-2.15a2.868 2.868 0 012.868-2.868h2.151a2.868 2.868 0 012.868 2.868v2.151a2.868 2.868 0 01-2.868 2.868zm-2.151-6.453a1.434 1.434 0 00-1.434 1.434v2.151a1.434 1.434 0 001.434 1.434h2.151a1.434 1.434 0 001.434-1.434v-2.15a1.434 1.434 0 00-1.434-1.434z" fill="#b8b5c6"/><path data-name="Path 9538" d="M84.24 62.733h-2.151a2.151 2.151 0 00-2.151 2.151v2.149a2.151 2.151 0 002.151 2.151h2.151a2.151 2.151 0 002.151-2.151v-2.149a2.151 2.151 0 00-2.151-2.151z" fill="#b8b5c6"/><path data-name="Path 9539" d="M84.242 69.902h-2.151a2.868 2.868 0 01-2.868-2.868v-2.15a2.868 2.868 0 012.868-2.868h2.151a2.868 2.868 0 012.868 2.868v2.151a2.868 2.868 0 01-2.868 2.868zm-2.151-6.453a1.434 1.434 0 00-1.434 1.434v2.151a1.434 1.434 0 001.434 1.434h2.151a1.434 1.434 0 001.434-1.434v-2.15a1.434 1.434 0 00-1.434-1.434z" fill="#b8b5c6"/><path data-name="Path 9540" d="M84.24 74.204h-2.151a2.151 2.151 0 00-2.151 2.151v2.149a2.151 2.151 0 002.151 2.151h2.151a2.151 2.151 0 002.151-2.151v-2.151a2.151 2.151 0 00-2.151-2.149z" fill="#b8b5c6"/><path data-name="Path 9541" d="M84.242 81.373h-2.151a2.869 2.869 0 01-2.868-2.868v-2.151a2.869 2.869 0 012.868-2.868h2.151a2.869 2.869 0 012.868 2.868v2.151a2.869 2.869 0 01-2.868 2.868zm-2.151-6.453a1.434 1.434 0 00-1.434 1.434v2.151a1.434 1.434 0 001.434 1.434h2.151a1.434 1.434 0 001.434-1.434v-2.151a1.434 1.434 0 00-1.434-1.434z" fill="#b8b5c6"/><path data-name="Path 9542" d="M32.619 38.357H30.47a2.151 2.151 0 00-2.151 2.151v2.149a2.151 2.151 0 002.151 2.151h2.149a2.151 2.151 0 002.153-2.151v-2.149a2.151 2.151 0 00-2.153-2.151z" fill="#ff3da2"/><path data-name="Path 9543" d="M32.621 45.526H30.47a2.868 2.868 0 01-2.868-2.867v-2.151a2.868 2.868 0 012.868-2.868h2.151a2.868 2.868 0 012.868 2.868v2.151a2.868 2.868 0 01-2.868 2.868zm-2.151-6.453a1.434 1.434 0 00-1.434 1.434v2.151a1.434 1.434 0 001.434 1.434h2.151a1.434 1.434 0 001.434-1.434v-2.15a1.434 1.434 0 00-1.434-1.434z"/><path data-name="Path 9544" d="M32.619 49.828H30.47a2.151 2.151 0 00-2.151 2.151v2.149a2.151 2.151 0 002.151 2.151h2.149a2.151 2.151 0 002.153-2.151v-2.149a2.151 2.151 0 00-2.153-2.151z" fill="#ff3da2"/><path data-name="Path 9545" d="M32.621 56.997H30.47a2.868 2.868 0 01-2.868-2.867v-2.151a2.868 2.868 0 012.868-2.868h2.151a2.868 2.868 0 012.868 2.868v2.151a2.868 2.868 0 01-2.868 2.868zm-2.151-6.453a1.434 1.434 0 00-1.434 1.434v2.151a1.434 1.434 0 001.434 1.434h2.151a1.434 1.434 0 001.434-1.434v-2.15a1.434 1.434 0 00-1.434-1.434z"/><path data-name="Path 9546" d="M32.619 61.299H30.47a2.151 2.151 0 00-2.151 2.151v2.149a2.151 2.151 0 002.151 2.151h2.149a2.151 2.151 0 002.153-2.151V63.45a2.151 2.151 0 00-2.153-2.151z" fill="#ff3da2"/><path data-name="Path 9547" d="M32.621 68.468H30.47a2.868 2.868 0 01-2.868-2.867V63.45a2.868 2.868 0 012.868-2.868h2.151a2.868 2.868 0 012.868 2.868v2.151a2.868 2.868 0 01-2.868 2.868zm-2.151-6.453a1.434 1.434 0 00-1.434 1.434V65.6a1.434 1.434 0 001.434 1.434h2.151a1.434 1.434 0 001.434-1.434v-2.15a1.434 1.434 0 00-1.434-1.434z"/><path data-name="Path 9548" d="M32.619 72.77H30.47a2.151 2.151 0 00-2.151 2.151v2.149a2.151 2.151 0 002.151 2.151h2.149a2.151 2.151 0 002.151-2.151v-2.151a2.151 2.151 0 00-2.151-2.149z" fill="#ff3da2"/><path data-name="Path 9549" d="M32.621 79.939H30.47a2.868 2.868 0 01-2.868-2.868V74.92a2.868 2.868 0 012.868-2.868h2.151a2.868 2.868 0 012.868 2.868v2.151a2.868 2.868 0 01-2.868 2.868zm-2.151-6.453a1.434 1.434 0 00-1.434 1.434v2.151a1.434 1.434 0 001.434 1.434h2.151a1.434 1.434 0 001.434-1.434V74.92a1.434 1.434 0 00-1.434-1.434z"/><path data-name="Path 9550" d="M82.806 38.357h-2.151a2.151 2.151 0 00-2.151 2.151v2.149a2.151 2.151 0 002.151 2.151h2.151a2.151 2.151 0 002.151-2.151v-2.149a2.151 2.151 0 00-2.151-2.151z" fill="#ff3da2"/><path data-name="Path 9551" d="M82.808 45.526h-2.151a2.868 2.868 0 01-2.868-2.868v-2.15a2.868 2.868 0 012.868-2.868h2.151a2.868 2.868 0 012.868 2.868v2.151a2.868 2.868 0 01-2.868 2.868zm-2.151-6.453a1.434 1.434 0 00-1.434 1.434v2.151a1.434 1.434 0 001.434 1.434h2.151a1.434 1.434 0 001.434-1.434v-2.15a1.434 1.434 0 00-1.434-1.434z"/><path data-name="Path 9552" d="M82.806 49.828h-2.151a2.151 2.151 0 00-2.151 2.151v2.149a2.151 2.151 0 002.151 2.151h2.151a2.151 2.151 0 002.151-2.151v-2.149a2.151 2.151 0 00-2.151-2.151z" fill="#ff3da2"/><path data-name="Path 9553" d="M82.808 56.997h-2.151a2.868 2.868 0 01-2.868-2.868v-2.15a2.868 2.868 0 012.868-2.868h2.151a2.868 2.868 0 012.868 2.868v2.151a2.868 2.868 0 01-2.868 2.868zm-2.151-6.453a1.434 1.434 0 00-1.434 1.434v2.151a1.434 1.434 0 001.434 1.434h2.151a1.434 1.434 0 001.434-1.434v-2.15a1.434 1.434 0 00-1.434-1.434z"/><path data-name="Path 9554" d="M82.806 61.299h-2.151a2.151 2.151 0 00-2.151 2.151v2.149a2.151 2.151 0 002.151 2.151h2.151a2.151 2.151 0 002.151-2.151V63.45a2.151 2.151 0 00-2.151-2.151z" fill="#ff3da2"/><path data-name="Path 9555" d="M82.808 68.468h-2.151a2.868 2.868 0 01-2.868-2.868v-2.15a2.868 2.868 0 012.868-2.868h2.151a2.868 2.868 0 012.868 2.868v2.151a2.868 2.868 0 01-2.868 2.868zm-2.151-6.453a1.434 1.434 0 00-1.434 1.434V65.6a1.434 1.434 0 001.434 1.434h2.151a1.434 1.434 0 001.434-1.434v-2.15a1.434 1.434 0 00-1.434-1.434z"/><path data-name="Path 9556" d="M82.806 72.77h-2.151a2.151 2.151 0 00-2.151 2.151v2.149a2.151 2.151 0 002.151 2.151h2.151a2.151 2.151 0 002.151-2.151v-2.151a2.151 2.151 0 00-2.151-2.149z" fill="#ff3da2"/><path data-name="Path 9557" d="M82.808 79.939h-2.151a2.869 2.869 0 01-2.868-2.868V74.92a2.869 2.869 0 012.868-2.868h2.151a2.869 2.869 0 012.868 2.868v2.151a2.869 2.869 0 01-2.868 2.868zm-2.151-6.453a1.434 1.434 0 00-1.434 1.434v2.151a1.434 1.434 0 001.434 1.434h2.151a1.434 1.434 0 001.434-1.434V74.92a1.434 1.434 0 00-1.434-1.434z"/><path data-name="Path 9558" d="M67.393 48.036H50.185a4.3 4.3 0 00-4.3 4.3v17.208a4.3 4.3 0 004.3 4.3h17.208a4.3 4.3 0 004.3-4.3V52.336a4.3 4.3 0 00-4.3-4.3z" fill="#b8b5c6"/><path data-name="Path 9559" d="M67.393 74.563H50.187a5.018 5.018 0 01-5.019-5.019V52.338a5.019 5.019 0 015.019-5.019h17.206a5.019 5.019 0 015.019 5.019v17.206a5.018 5.018 0 01-5.019 5.019zm-17.206-25.81a3.585 3.585 0 00-3.585 3.585v17.206a3.584 3.584 0 003.585 3.585h17.206a3.584 3.584 0 003.585-3.585V52.338a3.585 3.585 0 00-3.585-3.585z" fill="#b8b5c6"/><path data-name="Path 9560" d="M65.242 45.885H48.034a4.3 4.3 0 00-4.3 4.3v17.208a4.3 4.3 0 004.3 4.3h17.208a4.3 4.3 0 004.3-4.3V50.185a4.3 4.3 0 00-4.3-4.3z" fill="#ff3da2"/><path data-name="Path 9561" d="M65.242 72.412H48.036a5.019 5.019 0 01-5.019-5.019V50.187a5.019 5.019 0 015.019-5.019h17.206a5.019 5.019 0 015.019 5.019v17.206a5.019 5.019 0 01-5.019 5.019zm-17.206-25.81a3.585 3.585 0 00-3.585 3.585v17.206a3.585 3.585 0 003.585 3.585h17.206a3.585 3.585 0 003.585-3.585V50.187a3.585 3.585 0 00-3.585-3.585z"/><path data-name="Path 9562" d="M53.055 60.224h-4.3a.717.717 0 010-1.434h4.3a.717.717 0 010 1.434z" fill="#fff"/><path data-name="Path 9563" d="M53.055 65.242a.717.717 0 01-.717-.717v-9.32a1.434 1.434 0 00-2.868 0v9.32a.717.717 0 01-1.434 0v-9.32a2.868 2.868 0 015.736 0v9.32a.717.717 0 01-.717.717z" fill="#fff"/><path data-name="Path 9564" d="M58.79 60.223h-2.151a.717.717 0 01-.717-.717v-6.452a.717.717 0 01.717-.717h2.151a2.868 2.868 0 012.868 2.868v2.151a2.868 2.868 0 01-2.868 2.868zm-1.434-1.434h1.434a1.434 1.434 0 001.432-1.433v-2.151a1.434 1.434 0 00-1.434-1.434h-1.432z" fill="#fff"/><path data-name="Path 9565" d="M64.525 65.242a.717.717 0 01-.717-.717V53.054a.717.717 0 011.434 0v11.471a.717.717 0 01-.717.717z" fill="#fff"/><path data-name="Path 9566" d="M56.639 65.242a.717.717 0 01-.717-.717V53.054a.717.717 0 011.434 0v11.471a.717.717 0 01-.717.717z" fill="#fff"/><path data-name="Path 9567" d="M78.506 53.771h-8.962a.717.717 0 010-1.434h8.962a.717.717 0 010 1.434z"/><path data-name="Path 9568" d="M62.375 46.602a.717.717 0 01-.717-.717v-4.3a.717.717 0 01.717-.719h16.131a.717.717 0 010 1.434H63.092v3.585a.717.717 0 01-.717.717z"/><path data-name="Path 9569" d="M78.506 76.714H62.375a.717.717 0 01-.717-.717v-4.3a.717.717 0 011.434 0v3.581h15.414a.717.717 0 010 1.434z"/><path data-name="Path 9570" d="M78.506 65.242h-8.962a.717.717 0 010-1.434h8.962a.717.717 0 010 1.434z"/><path data-name="Path 9571" d="M43.734 53.771h-8.962a.717.717 0 010-1.434h8.962a.717.717 0 010 1.434z"/><path data-name="Path 9572" d="M43.734 65.242h-8.962a.717.717 0 010-1.434h8.962a.717.717 0 010 1.434z"/><path data-name="Path 9573" d="M50.903 76.714H34.772a.717.717 0 010-1.434h15.414v-3.585a.717.717 0 011.434 0v4.3a.717.717 0 01-.717.717z"/><path data-name="Path 9574" d="M50.903 46.602a.717.717 0 01-.717-.717V42.3H34.772a.717.717 0 010-1.434h16.131a.717.717 0 01.717.717v4.3a.717.717 0 01-.717.717z"/><path data-name="Path 9575" d="M116.863 78.147a5.736 5.736 0 10-5.736-5.735 5.736 5.736 0 005.736 5.735z" fill="#fff"/><path data-name="Path 9576" d="M116.863 78.864a.717.717 0 01-.717-.717 5.018 5.018 0 00-5.019-5.019.717.717 0 010-1.434 5.018 5.018 0 005.019-5.019.717.717 0 011.434 0 5.018 5.018 0 005.019 5.019.717.717 0 010 1.434 5.018 5.018 0 00-5.019 5.019.717.717 0 01-.717.717zm-2.782-6.453a6.5 6.5 0 012.782 2.782 6.5 6.5 0 012.782-2.782 6.506 6.506 0 01-2.782-2.782 6.506 6.506 0 01-2.782 2.783z" fill="#a09cad"/><path data-name="Path 9577" d="M108.26 27.961a5.736 5.736 0 10-5.736-5.735 5.736 5.736 0 005.736 5.735z" fill="#fff"/><path data-name="Path 9578" d="M108.26 28.678a.717.717 0 01-.717-.717 5.018 5.018 0 00-5.019-5.019.717.717 0 010-1.434 5.018 5.018 0 005.019-5.019.717.717 0 011.434 0 5.018 5.018 0 005.019 5.019.717.717 0 010 1.434 5.018 5.018 0 00-5.019 5.019.717.717 0 01-.717.717zm-2.782-6.453a6.507 6.507 0 012.782 2.782 6.507 6.507 0 012.782-2.782 6.507 6.507 0 01-2.782-2.782 6.507 6.507 0 01-2.782 2.782z" fill="#a09cad"/><path data-name="Path 9579" d="M68.827 12.188a5.736 5.736 0 10-5.736-5.735 5.736 5.736 0 005.736 5.735z" fill="#fff"/><path data-name="Path 9580" d="M68.827 12.905a.717.717 0 01-.717-.717 5.019 5.019 0 00-5.019-5.019.717.717 0 110-1.434A5.019 5.019 0 0068.11.717a.717.717 0 111.434 0 5.019 5.019 0 005.019 5.019.717.717 0 010 1.434 5.019 5.019 0 00-5.019 5.019.717.717 0 01-.717.717zm-2.782-6.452a6.51 6.51 0 012.782 2.782 6.51 6.51 0 012.782-2.782 6.51 6.51 0 01-2.782-2.782 6.51 6.51 0 01-2.782 2.782z" fill="#a09cad"/><path data-name="Path 9581" d="M24.377 18.64a5.736 5.736 0 10-5.736-5.735 5.736 5.736 0 005.736 5.735z" fill="#fff"/><path data-name="Path 9582" d="M24.377 19.358a.717.717 0 01-.717-.717 5.019 5.019 0 00-5.019-5.019.717.717 0 010-1.434 5.019 5.019 0 005.019-5.019.717.717 0 011.434 0 5.019 5.019 0 005.019 5.019.717.717 0 010 1.434 5.019 5.019 0 00-5.019 5.019.717.717 0 01-.717.717zm-2.782-6.453a6.51 6.51 0 012.782 2.782 6.51 6.51 0 012.782-2.782 6.51 6.51 0 01-2.782-2.782 6.51 6.51 0 01-2.782 2.782z" fill="#a09cad"/><path data-name="Path 9583" d="M6.453 56.639a5.736 5.736 0 10-5.736-5.735 5.736 5.736 0 005.736 5.735z" fill="#fff"/><path data-name="Path 9584" d="M6.453 57.356a.717.717 0 01-.717-.717A5.019 5.019 0 00.717 51.62a.717.717 0 010-1.434 5.019 5.019 0 005.019-5.019.717.717 0 111.434 0 5.019 5.019 0 005.019 5.019.717.717 0 010 1.434 5.019 5.019 0 00-5.019 5.019.717.717 0 01-.717.717zm-2.782-6.452a6.51 6.51 0 012.782 2.782 6.51 6.51 0 012.782-2.782 6.51 6.51 0 01-2.782-2.782 6.51 6.51 0 01-2.782 2.782z" fill="#a09cad"/><path data-name="Path 9585" d="M9.916 96.071a5.736 5.736 0 10-5.736-5.736 5.736 5.736 0 005.736 5.736z" fill="#fff"/><path data-name="Path 9586" d="M9.916 96.788a.717.717 0 01-.717-.717 5.018 5.018 0 00-5.019-5.019.717.717 0 010-1.434 5.018 5.018 0 005.019-5.019.717.717 0 011.434 0 5.018 5.018 0 005.019 5.019.717.717 0 010 1.434 5.018 5.018 0 00-5.019 5.019.717.717 0 01-.717.717zM7.17 90.335a6.507 6.507 0 012.782 2.782 6.508 6.508 0 012.746-2.782 6.507 6.507 0 01-2.782-2.782 6.508 6.508 0 01-2.746 2.782z" fill="#a09cad"/></svg>